G75*
G70*
%OFA0B0*%
%FSLAX24Y24*%
%IPPOS*%
%LPD*%
%AMOC8*
5,1,8,0,0,1.08239X$1,22.5*
%
%ADD10C,0.0000*%
%ADD11C,0.2580*%
%ADD12C,0.0237*%
%ADD13R,0.1000X0.2812*%
%ADD14R,0.1000X0.2875*%
%ADD15R,0.1000X0.1813*%
%ADD16R,0.0580X0.0300*%
%ADD17R,0.0300X0.0580*%
%ADD18R,0.0474X0.0513*%
%ADD19C,0.0740*%
%ADD20R,0.0513X0.0474*%
%ADD21R,0.0395X0.0395*%
%ADD22R,0.0540X0.0710*%
%ADD23R,0.0060X0.0720*%
%ADD24R,0.0867X0.0395*%
%ADD25R,0.0395X0.0552*%
%ADD26R,0.0395X0.0631*%
%ADD27R,0.0592X0.0671*%
%ADD28C,0.0050*%
%ADD29R,0.0966X0.0237*%
%ADD30C,0.0297*%
%ADD31C,0.0674*%
%ADD32R,0.0828X0.0828*%
%ADD33R,0.0552X0.0631*%
%ADD34R,0.0671X0.0671*%
%ADD35C,0.1080*%
%ADD36R,0.0474X0.0631*%
D10*
X002655Y001008D02*
X017655Y001008D01*
X017750Y001010D01*
X017845Y001017D01*
X017940Y001028D01*
X018034Y001044D01*
X018127Y001064D01*
X018218Y001089D01*
X018309Y001118D01*
X018398Y001151D01*
X018486Y001189D01*
X018571Y001230D01*
X018655Y001276D01*
X018736Y001325D01*
X018815Y001379D01*
X018891Y001436D01*
X018965Y001497D01*
X019035Y001561D01*
X019102Y001628D01*
X019166Y001698D01*
X019227Y001772D01*
X019284Y001848D01*
X019338Y001927D01*
X019387Y002008D01*
X019433Y002092D01*
X019474Y002177D01*
X019512Y002265D01*
X019545Y002354D01*
X019574Y002445D01*
X019599Y002536D01*
X019619Y002629D01*
X019635Y002723D01*
X019646Y002818D01*
X019653Y002913D01*
X019655Y003008D01*
X019655Y005820D01*
X019657Y005864D01*
X019663Y005907D01*
X019672Y005949D01*
X019685Y005991D01*
X019702Y006031D01*
X019722Y006070D01*
X019745Y006107D01*
X019772Y006141D01*
X019801Y006174D01*
X019834Y006203D01*
X019868Y006230D01*
X019905Y006253D01*
X019944Y006273D01*
X019984Y006290D01*
X020026Y006303D01*
X020068Y006312D01*
X020111Y006318D01*
X020155Y006320D01*
X019701Y006445D02*
X019703Y006463D01*
X019709Y006479D01*
X019718Y006494D01*
X019731Y006507D01*
X019746Y006516D01*
X019762Y006522D01*
X019780Y006524D01*
X019798Y006522D01*
X019814Y006516D01*
X019829Y006507D01*
X019842Y006494D01*
X019851Y006479D01*
X019857Y006463D01*
X019859Y006445D01*
X019857Y006427D01*
X019851Y006411D01*
X019842Y006396D01*
X019829Y006383D01*
X019814Y006374D01*
X019798Y006368D01*
X019780Y006366D01*
X019762Y006368D01*
X019746Y006374D01*
X019731Y006383D01*
X019718Y006396D01*
X019709Y006411D01*
X019703Y006427D01*
X019701Y006445D01*
X019701Y006758D02*
X019703Y006776D01*
X019709Y006792D01*
X019718Y006807D01*
X019731Y006820D01*
X019746Y006829D01*
X019762Y006835D01*
X019780Y006837D01*
X019798Y006835D01*
X019814Y006829D01*
X019829Y006820D01*
X019842Y006807D01*
X019851Y006792D01*
X019857Y006776D01*
X019859Y006758D01*
X019857Y006740D01*
X019851Y006724D01*
X019842Y006709D01*
X019829Y006696D01*
X019814Y006687D01*
X019798Y006681D01*
X019780Y006679D01*
X019762Y006681D01*
X019746Y006687D01*
X019731Y006696D01*
X019718Y006709D01*
X019709Y006724D01*
X019703Y006740D01*
X019701Y006758D01*
X019701Y007070D02*
X019703Y007088D01*
X019709Y007104D01*
X019718Y007119D01*
X019731Y007132D01*
X019746Y007141D01*
X019762Y007147D01*
X019780Y007149D01*
X019798Y007147D01*
X019814Y007141D01*
X019829Y007132D01*
X019842Y007119D01*
X019851Y007104D01*
X019857Y007088D01*
X019859Y007070D01*
X019857Y007052D01*
X019851Y007036D01*
X019842Y007021D01*
X019829Y007008D01*
X019814Y006999D01*
X019798Y006993D01*
X019780Y006991D01*
X019762Y006993D01*
X019746Y006999D01*
X019731Y007008D01*
X019718Y007021D01*
X019709Y007036D01*
X019703Y007052D01*
X019701Y007070D01*
X019701Y007383D02*
X019703Y007401D01*
X019709Y007417D01*
X019718Y007432D01*
X019731Y007445D01*
X019746Y007454D01*
X019762Y007460D01*
X019780Y007462D01*
X019798Y007460D01*
X019814Y007454D01*
X019829Y007445D01*
X019842Y007432D01*
X019851Y007417D01*
X019857Y007401D01*
X019859Y007383D01*
X019857Y007365D01*
X019851Y007349D01*
X019842Y007334D01*
X019829Y007321D01*
X019814Y007312D01*
X019798Y007306D01*
X019780Y007304D01*
X019762Y007306D01*
X019746Y007312D01*
X019731Y007321D01*
X019718Y007334D01*
X019709Y007349D01*
X019703Y007365D01*
X019701Y007383D01*
X019701Y007695D02*
X019703Y007713D01*
X019709Y007729D01*
X019718Y007744D01*
X019731Y007757D01*
X019746Y007766D01*
X019762Y007772D01*
X019780Y007774D01*
X019798Y007772D01*
X019814Y007766D01*
X019829Y007757D01*
X019842Y007744D01*
X019851Y007729D01*
X019857Y007713D01*
X019859Y007695D01*
X019857Y007677D01*
X019851Y007661D01*
X019842Y007646D01*
X019829Y007633D01*
X019814Y007624D01*
X019798Y007618D01*
X019780Y007616D01*
X019762Y007618D01*
X019746Y007624D01*
X019731Y007633D01*
X019718Y007646D01*
X019709Y007661D01*
X019703Y007677D01*
X019701Y007695D01*
X019701Y008008D02*
X019703Y008026D01*
X019709Y008042D01*
X019718Y008057D01*
X019731Y008070D01*
X019746Y008079D01*
X019762Y008085D01*
X019780Y008087D01*
X019798Y008085D01*
X019814Y008079D01*
X019829Y008070D01*
X019842Y008057D01*
X019851Y008042D01*
X019857Y008026D01*
X019859Y008008D01*
X019857Y007990D01*
X019851Y007974D01*
X019842Y007959D01*
X019829Y007946D01*
X019814Y007937D01*
X019798Y007931D01*
X019780Y007929D01*
X019762Y007931D01*
X019746Y007937D01*
X019731Y007946D01*
X019718Y007959D01*
X019709Y007974D01*
X019703Y007990D01*
X019701Y008008D01*
X019655Y008633D02*
X019655Y014133D01*
X019657Y014177D01*
X019663Y014220D01*
X019672Y014262D01*
X019685Y014304D01*
X019702Y014344D01*
X019722Y014383D01*
X019745Y014420D01*
X019772Y014454D01*
X019801Y014487D01*
X019834Y014516D01*
X019868Y014543D01*
X019905Y014566D01*
X019944Y014586D01*
X019984Y014603D01*
X020026Y014616D01*
X020068Y014625D01*
X020111Y014631D01*
X020155Y014633D01*
X019701Y014758D02*
X019703Y014776D01*
X019709Y014792D01*
X019718Y014807D01*
X019731Y014820D01*
X019746Y014829D01*
X019762Y014835D01*
X019780Y014837D01*
X019798Y014835D01*
X019814Y014829D01*
X019829Y014820D01*
X019842Y014807D01*
X019851Y014792D01*
X019857Y014776D01*
X019859Y014758D01*
X019857Y014740D01*
X019851Y014724D01*
X019842Y014709D01*
X019829Y014696D01*
X019814Y014687D01*
X019798Y014681D01*
X019780Y014679D01*
X019762Y014681D01*
X019746Y014687D01*
X019731Y014696D01*
X019718Y014709D01*
X019709Y014724D01*
X019703Y014740D01*
X019701Y014758D01*
X019701Y015070D02*
X019703Y015088D01*
X019709Y015104D01*
X019718Y015119D01*
X019731Y015132D01*
X019746Y015141D01*
X019762Y015147D01*
X019780Y015149D01*
X019798Y015147D01*
X019814Y015141D01*
X019829Y015132D01*
X019842Y015119D01*
X019851Y015104D01*
X019857Y015088D01*
X019859Y015070D01*
X019857Y015052D01*
X019851Y015036D01*
X019842Y015021D01*
X019829Y015008D01*
X019814Y014999D01*
X019798Y014993D01*
X019780Y014991D01*
X019762Y014993D01*
X019746Y014999D01*
X019731Y015008D01*
X019718Y015021D01*
X019709Y015036D01*
X019703Y015052D01*
X019701Y015070D01*
X019701Y015383D02*
X019703Y015401D01*
X019709Y015417D01*
X019718Y015432D01*
X019731Y015445D01*
X019746Y015454D01*
X019762Y015460D01*
X019780Y015462D01*
X019798Y015460D01*
X019814Y015454D01*
X019829Y015445D01*
X019842Y015432D01*
X019851Y015417D01*
X019857Y015401D01*
X019859Y015383D01*
X019857Y015365D01*
X019851Y015349D01*
X019842Y015334D01*
X019829Y015321D01*
X019814Y015312D01*
X019798Y015306D01*
X019780Y015304D01*
X019762Y015306D01*
X019746Y015312D01*
X019731Y015321D01*
X019718Y015334D01*
X019709Y015349D01*
X019703Y015365D01*
X019701Y015383D01*
X019655Y016008D02*
X019655Y021195D01*
X019657Y021239D01*
X019663Y021282D01*
X019672Y021324D01*
X019685Y021366D01*
X019702Y021406D01*
X019722Y021445D01*
X019745Y021482D01*
X019772Y021516D01*
X019801Y021549D01*
X019834Y021578D01*
X019868Y021605D01*
X019905Y021628D01*
X019944Y021648D01*
X019984Y021665D01*
X020026Y021678D01*
X020068Y021687D01*
X020111Y021693D01*
X020155Y021695D01*
X019701Y021820D02*
X019703Y021838D01*
X019709Y021854D01*
X019718Y021869D01*
X019731Y021882D01*
X019746Y021891D01*
X019762Y021897D01*
X019780Y021899D01*
X019798Y021897D01*
X019814Y021891D01*
X019829Y021882D01*
X019842Y021869D01*
X019851Y021854D01*
X019857Y021838D01*
X019859Y021820D01*
X019857Y021802D01*
X019851Y021786D01*
X019842Y021771D01*
X019829Y021758D01*
X019814Y021749D01*
X019798Y021743D01*
X019780Y021741D01*
X019762Y021743D01*
X019746Y021749D01*
X019731Y021758D01*
X019718Y021771D01*
X019709Y021786D01*
X019703Y021802D01*
X019701Y021820D01*
X019701Y022133D02*
X019703Y022151D01*
X019709Y022167D01*
X019718Y022182D01*
X019731Y022195D01*
X019746Y022204D01*
X019762Y022210D01*
X019780Y022212D01*
X019798Y022210D01*
X019814Y022204D01*
X019829Y022195D01*
X019842Y022182D01*
X019851Y022167D01*
X019857Y022151D01*
X019859Y022133D01*
X019857Y022115D01*
X019851Y022099D01*
X019842Y022084D01*
X019829Y022071D01*
X019814Y022062D01*
X019798Y022056D01*
X019780Y022054D01*
X019762Y022056D01*
X019746Y022062D01*
X019731Y022071D01*
X019718Y022084D01*
X019709Y022099D01*
X019703Y022115D01*
X019701Y022133D01*
X019701Y022445D02*
X019703Y022463D01*
X019709Y022479D01*
X019718Y022494D01*
X019731Y022507D01*
X019746Y022516D01*
X019762Y022522D01*
X019780Y022524D01*
X019798Y022522D01*
X019814Y022516D01*
X019829Y022507D01*
X019842Y022494D01*
X019851Y022479D01*
X019857Y022463D01*
X019859Y022445D01*
X019857Y022427D01*
X019851Y022411D01*
X019842Y022396D01*
X019829Y022383D01*
X019814Y022374D01*
X019798Y022368D01*
X019780Y022366D01*
X019762Y022368D01*
X019746Y022374D01*
X019731Y022383D01*
X019718Y022396D01*
X019709Y022411D01*
X019703Y022427D01*
X019701Y022445D01*
X019701Y022758D02*
X019703Y022776D01*
X019709Y022792D01*
X019718Y022807D01*
X019731Y022820D01*
X019746Y022829D01*
X019762Y022835D01*
X019780Y022837D01*
X019798Y022835D01*
X019814Y022829D01*
X019829Y022820D01*
X019842Y022807D01*
X019851Y022792D01*
X019857Y022776D01*
X019859Y022758D01*
X019857Y022740D01*
X019851Y022724D01*
X019842Y022709D01*
X019829Y022696D01*
X019814Y022687D01*
X019798Y022681D01*
X019780Y022679D01*
X019762Y022681D01*
X019746Y022687D01*
X019731Y022696D01*
X019718Y022709D01*
X019709Y022724D01*
X019703Y022740D01*
X019701Y022758D01*
X019701Y023070D02*
X019703Y023088D01*
X019709Y023104D01*
X019718Y023119D01*
X019731Y023132D01*
X019746Y023141D01*
X019762Y023147D01*
X019780Y023149D01*
X019798Y023147D01*
X019814Y023141D01*
X019829Y023132D01*
X019842Y023119D01*
X019851Y023104D01*
X019857Y023088D01*
X019859Y023070D01*
X019857Y023052D01*
X019851Y023036D01*
X019842Y023021D01*
X019829Y023008D01*
X019814Y022999D01*
X019798Y022993D01*
X019780Y022991D01*
X019762Y022993D01*
X019746Y022999D01*
X019731Y023008D01*
X019718Y023021D01*
X019709Y023036D01*
X019703Y023052D01*
X019701Y023070D01*
X019701Y023383D02*
X019703Y023401D01*
X019709Y023417D01*
X019718Y023432D01*
X019731Y023445D01*
X019746Y023454D01*
X019762Y023460D01*
X019780Y023462D01*
X019798Y023460D01*
X019814Y023454D01*
X019829Y023445D01*
X019842Y023432D01*
X019851Y023417D01*
X019857Y023401D01*
X019859Y023383D01*
X019857Y023365D01*
X019851Y023349D01*
X019842Y023334D01*
X019829Y023321D01*
X019814Y023312D01*
X019798Y023306D01*
X019780Y023304D01*
X019762Y023306D01*
X019746Y023312D01*
X019731Y023321D01*
X019718Y023334D01*
X019709Y023349D01*
X019703Y023365D01*
X019701Y023383D01*
X019655Y024008D02*
X019655Y030508D01*
X020655Y030508D02*
X020655Y024008D01*
X020653Y023964D01*
X020647Y023921D01*
X020638Y023879D01*
X020625Y023837D01*
X020608Y023797D01*
X020588Y023758D01*
X020565Y023721D01*
X020538Y023687D01*
X020509Y023654D01*
X020476Y023625D01*
X020442Y023598D01*
X020405Y023575D01*
X020366Y023555D01*
X020326Y023538D01*
X020284Y023525D01*
X020242Y023516D01*
X020199Y023510D01*
X020155Y023508D01*
X020451Y023383D02*
X020453Y023401D01*
X020459Y023417D01*
X020468Y023432D01*
X020481Y023445D01*
X020496Y023454D01*
X020512Y023460D01*
X020530Y023462D01*
X020548Y023460D01*
X020564Y023454D01*
X020579Y023445D01*
X020592Y023432D01*
X020601Y023417D01*
X020607Y023401D01*
X020609Y023383D01*
X020607Y023365D01*
X020601Y023349D01*
X020592Y023334D01*
X020579Y023321D01*
X020564Y023312D01*
X020548Y023306D01*
X020530Y023304D01*
X020512Y023306D01*
X020496Y023312D01*
X020481Y023321D01*
X020468Y023334D01*
X020459Y023349D01*
X020453Y023365D01*
X020451Y023383D01*
X020451Y023070D02*
X020453Y023088D01*
X020459Y023104D01*
X020468Y023119D01*
X020481Y023132D01*
X020496Y023141D01*
X020512Y023147D01*
X020530Y023149D01*
X020548Y023147D01*
X020564Y023141D01*
X020579Y023132D01*
X020592Y023119D01*
X020601Y023104D01*
X020607Y023088D01*
X020609Y023070D01*
X020607Y023052D01*
X020601Y023036D01*
X020592Y023021D01*
X020579Y023008D01*
X020564Y022999D01*
X020548Y022993D01*
X020530Y022991D01*
X020512Y022993D01*
X020496Y022999D01*
X020481Y023008D01*
X020468Y023021D01*
X020459Y023036D01*
X020453Y023052D01*
X020451Y023070D01*
X020451Y022758D02*
X020453Y022776D01*
X020459Y022792D01*
X020468Y022807D01*
X020481Y022820D01*
X020496Y022829D01*
X020512Y022835D01*
X020530Y022837D01*
X020548Y022835D01*
X020564Y022829D01*
X020579Y022820D01*
X020592Y022807D01*
X020601Y022792D01*
X020607Y022776D01*
X020609Y022758D01*
X020607Y022740D01*
X020601Y022724D01*
X020592Y022709D01*
X020579Y022696D01*
X020564Y022687D01*
X020548Y022681D01*
X020530Y022679D01*
X020512Y022681D01*
X020496Y022687D01*
X020481Y022696D01*
X020468Y022709D01*
X020459Y022724D01*
X020453Y022740D01*
X020451Y022758D01*
X020451Y022445D02*
X020453Y022463D01*
X020459Y022479D01*
X020468Y022494D01*
X020481Y022507D01*
X020496Y022516D01*
X020512Y022522D01*
X020530Y022524D01*
X020548Y022522D01*
X020564Y022516D01*
X020579Y022507D01*
X020592Y022494D01*
X020601Y022479D01*
X020607Y022463D01*
X020609Y022445D01*
X020607Y022427D01*
X020601Y022411D01*
X020592Y022396D01*
X020579Y022383D01*
X020564Y022374D01*
X020548Y022368D01*
X020530Y022366D01*
X020512Y022368D01*
X020496Y022374D01*
X020481Y022383D01*
X020468Y022396D01*
X020459Y022411D01*
X020453Y022427D01*
X020451Y022445D01*
X020451Y022133D02*
X020453Y022151D01*
X020459Y022167D01*
X020468Y022182D01*
X020481Y022195D01*
X020496Y022204D01*
X020512Y022210D01*
X020530Y022212D01*
X020548Y022210D01*
X020564Y022204D01*
X020579Y022195D01*
X020592Y022182D01*
X020601Y022167D01*
X020607Y022151D01*
X020609Y022133D01*
X020607Y022115D01*
X020601Y022099D01*
X020592Y022084D01*
X020579Y022071D01*
X020564Y022062D01*
X020548Y022056D01*
X020530Y022054D01*
X020512Y022056D01*
X020496Y022062D01*
X020481Y022071D01*
X020468Y022084D01*
X020459Y022099D01*
X020453Y022115D01*
X020451Y022133D01*
X020451Y021820D02*
X020453Y021838D01*
X020459Y021854D01*
X020468Y021869D01*
X020481Y021882D01*
X020496Y021891D01*
X020512Y021897D01*
X020530Y021899D01*
X020548Y021897D01*
X020564Y021891D01*
X020579Y021882D01*
X020592Y021869D01*
X020601Y021854D01*
X020607Y021838D01*
X020609Y021820D01*
X020607Y021802D01*
X020601Y021786D01*
X020592Y021771D01*
X020579Y021758D01*
X020564Y021749D01*
X020548Y021743D01*
X020530Y021741D01*
X020512Y021743D01*
X020496Y021749D01*
X020481Y021758D01*
X020468Y021771D01*
X020459Y021786D01*
X020453Y021802D01*
X020451Y021820D01*
X020655Y021195D02*
X020655Y016008D01*
X020653Y015964D01*
X020647Y015921D01*
X020638Y015879D01*
X020625Y015837D01*
X020608Y015797D01*
X020588Y015758D01*
X020565Y015721D01*
X020538Y015687D01*
X020509Y015654D01*
X020476Y015625D01*
X020442Y015598D01*
X020405Y015575D01*
X020366Y015555D01*
X020326Y015538D01*
X020284Y015525D01*
X020242Y015516D01*
X020199Y015510D01*
X020155Y015508D01*
X020451Y015383D02*
X020453Y015401D01*
X020459Y015417D01*
X020468Y015432D01*
X020481Y015445D01*
X020496Y015454D01*
X020512Y015460D01*
X020530Y015462D01*
X020548Y015460D01*
X020564Y015454D01*
X020579Y015445D01*
X020592Y015432D01*
X020601Y015417D01*
X020607Y015401D01*
X020609Y015383D01*
X020607Y015365D01*
X020601Y015349D01*
X020592Y015334D01*
X020579Y015321D01*
X020564Y015312D01*
X020548Y015306D01*
X020530Y015304D01*
X020512Y015306D01*
X020496Y015312D01*
X020481Y015321D01*
X020468Y015334D01*
X020459Y015349D01*
X020453Y015365D01*
X020451Y015383D01*
X020451Y015070D02*
X020453Y015088D01*
X020459Y015104D01*
X020468Y015119D01*
X020481Y015132D01*
X020496Y015141D01*
X020512Y015147D01*
X020530Y015149D01*
X020548Y015147D01*
X020564Y015141D01*
X020579Y015132D01*
X020592Y015119D01*
X020601Y015104D01*
X020607Y015088D01*
X020609Y015070D01*
X020607Y015052D01*
X020601Y015036D01*
X020592Y015021D01*
X020579Y015008D01*
X020564Y014999D01*
X020548Y014993D01*
X020530Y014991D01*
X020512Y014993D01*
X020496Y014999D01*
X020481Y015008D01*
X020468Y015021D01*
X020459Y015036D01*
X020453Y015052D01*
X020451Y015070D01*
X020451Y014758D02*
X020453Y014776D01*
X020459Y014792D01*
X020468Y014807D01*
X020481Y014820D01*
X020496Y014829D01*
X020512Y014835D01*
X020530Y014837D01*
X020548Y014835D01*
X020564Y014829D01*
X020579Y014820D01*
X020592Y014807D01*
X020601Y014792D01*
X020607Y014776D01*
X020609Y014758D01*
X020607Y014740D01*
X020601Y014724D01*
X020592Y014709D01*
X020579Y014696D01*
X020564Y014687D01*
X020548Y014681D01*
X020530Y014679D01*
X020512Y014681D01*
X020496Y014687D01*
X020481Y014696D01*
X020468Y014709D01*
X020459Y014724D01*
X020453Y014740D01*
X020451Y014758D01*
X020655Y014133D02*
X020655Y008633D01*
X020653Y008589D01*
X020647Y008546D01*
X020638Y008504D01*
X020625Y008462D01*
X020608Y008422D01*
X020588Y008383D01*
X020565Y008346D01*
X020538Y008312D01*
X020509Y008279D01*
X020476Y008250D01*
X020442Y008223D01*
X020405Y008200D01*
X020366Y008180D01*
X020326Y008163D01*
X020284Y008150D01*
X020242Y008141D01*
X020199Y008135D01*
X020155Y008133D01*
X020451Y008008D02*
X020453Y008026D01*
X020459Y008042D01*
X020468Y008057D01*
X020481Y008070D01*
X020496Y008079D01*
X020512Y008085D01*
X020530Y008087D01*
X020548Y008085D01*
X020564Y008079D01*
X020579Y008070D01*
X020592Y008057D01*
X020601Y008042D01*
X020607Y008026D01*
X020609Y008008D01*
X020607Y007990D01*
X020601Y007974D01*
X020592Y007959D01*
X020579Y007946D01*
X020564Y007937D01*
X020548Y007931D01*
X020530Y007929D01*
X020512Y007931D01*
X020496Y007937D01*
X020481Y007946D01*
X020468Y007959D01*
X020459Y007974D01*
X020453Y007990D01*
X020451Y008008D01*
X020451Y007695D02*
X020453Y007713D01*
X020459Y007729D01*
X020468Y007744D01*
X020481Y007757D01*
X020496Y007766D01*
X020512Y007772D01*
X020530Y007774D01*
X020548Y007772D01*
X020564Y007766D01*
X020579Y007757D01*
X020592Y007744D01*
X020601Y007729D01*
X020607Y007713D01*
X020609Y007695D01*
X020607Y007677D01*
X020601Y007661D01*
X020592Y007646D01*
X020579Y007633D01*
X020564Y007624D01*
X020548Y007618D01*
X020530Y007616D01*
X020512Y007618D01*
X020496Y007624D01*
X020481Y007633D01*
X020468Y007646D01*
X020459Y007661D01*
X020453Y007677D01*
X020451Y007695D01*
X020451Y007383D02*
X020453Y007401D01*
X020459Y007417D01*
X020468Y007432D01*
X020481Y007445D01*
X020496Y007454D01*
X020512Y007460D01*
X020530Y007462D01*
X020548Y007460D01*
X020564Y007454D01*
X020579Y007445D01*
X020592Y007432D01*
X020601Y007417D01*
X020607Y007401D01*
X020609Y007383D01*
X020607Y007365D01*
X020601Y007349D01*
X020592Y007334D01*
X020579Y007321D01*
X020564Y007312D01*
X020548Y007306D01*
X020530Y007304D01*
X020512Y007306D01*
X020496Y007312D01*
X020481Y007321D01*
X020468Y007334D01*
X020459Y007349D01*
X020453Y007365D01*
X020451Y007383D01*
X020451Y007070D02*
X020453Y007088D01*
X020459Y007104D01*
X020468Y007119D01*
X020481Y007132D01*
X020496Y007141D01*
X020512Y007147D01*
X020530Y007149D01*
X020548Y007147D01*
X020564Y007141D01*
X020579Y007132D01*
X020592Y007119D01*
X020601Y007104D01*
X020607Y007088D01*
X020609Y007070D01*
X020607Y007052D01*
X020601Y007036D01*
X020592Y007021D01*
X020579Y007008D01*
X020564Y006999D01*
X020548Y006993D01*
X020530Y006991D01*
X020512Y006993D01*
X020496Y006999D01*
X020481Y007008D01*
X020468Y007021D01*
X020459Y007036D01*
X020453Y007052D01*
X020451Y007070D01*
X020451Y006758D02*
X020453Y006776D01*
X020459Y006792D01*
X020468Y006807D01*
X020481Y006820D01*
X020496Y006829D01*
X020512Y006835D01*
X020530Y006837D01*
X020548Y006835D01*
X020564Y006829D01*
X020579Y006820D01*
X020592Y006807D01*
X020601Y006792D01*
X020607Y006776D01*
X020609Y006758D01*
X020607Y006740D01*
X020601Y006724D01*
X020592Y006709D01*
X020579Y006696D01*
X020564Y006687D01*
X020548Y006681D01*
X020530Y006679D01*
X020512Y006681D01*
X020496Y006687D01*
X020481Y006696D01*
X020468Y006709D01*
X020459Y006724D01*
X020453Y006740D01*
X020451Y006758D01*
X020451Y006445D02*
X020453Y006463D01*
X020459Y006479D01*
X020468Y006494D01*
X020481Y006507D01*
X020496Y006516D01*
X020512Y006522D01*
X020530Y006524D01*
X020548Y006522D01*
X020564Y006516D01*
X020579Y006507D01*
X020592Y006494D01*
X020601Y006479D01*
X020607Y006463D01*
X020609Y006445D01*
X020607Y006427D01*
X020601Y006411D01*
X020592Y006396D01*
X020579Y006383D01*
X020564Y006374D01*
X020548Y006368D01*
X020530Y006366D01*
X020512Y006368D01*
X020496Y006374D01*
X020481Y006383D01*
X020468Y006396D01*
X020459Y006411D01*
X020453Y006427D01*
X020451Y006445D01*
X020655Y005820D02*
X020655Y003008D01*
X020657Y002913D01*
X020664Y002818D01*
X020675Y002723D01*
X020691Y002629D01*
X020711Y002536D01*
X020736Y002445D01*
X020765Y002354D01*
X020798Y002265D01*
X020836Y002177D01*
X020877Y002092D01*
X020923Y002008D01*
X020972Y001927D01*
X021026Y001848D01*
X021083Y001772D01*
X021144Y001698D01*
X021208Y001628D01*
X021275Y001561D01*
X021345Y001497D01*
X021419Y001436D01*
X021495Y001379D01*
X021574Y001325D01*
X021655Y001276D01*
X021739Y001230D01*
X021824Y001189D01*
X021912Y001151D01*
X022001Y001118D01*
X022092Y001089D01*
X022183Y001064D01*
X022276Y001044D01*
X022370Y001028D01*
X022465Y001017D01*
X022560Y001010D01*
X022655Y001008D01*
X037655Y001008D01*
X037750Y001010D01*
X037845Y001017D01*
X037940Y001028D01*
X038034Y001044D01*
X038127Y001064D01*
X038218Y001089D01*
X038309Y001118D01*
X038398Y001151D01*
X038486Y001189D01*
X038571Y001230D01*
X038655Y001276D01*
X038736Y001325D01*
X038815Y001379D01*
X038891Y001436D01*
X038965Y001497D01*
X039035Y001561D01*
X039102Y001628D01*
X039166Y001698D01*
X039227Y001772D01*
X039284Y001848D01*
X039338Y001927D01*
X039387Y002008D01*
X039433Y002092D01*
X039474Y002177D01*
X039512Y002265D01*
X039545Y002354D01*
X039574Y002445D01*
X039599Y002536D01*
X039619Y002629D01*
X039635Y002723D01*
X039646Y002818D01*
X039653Y002913D01*
X039655Y003008D01*
X039655Y030508D01*
X039644Y030970D01*
X039610Y031431D01*
X039554Y031890D01*
X039476Y032345D01*
X039375Y032796D01*
X039253Y033242D01*
X039109Y033681D01*
X038944Y034113D01*
X038759Y034536D01*
X038553Y034950D01*
X038327Y035353D01*
X038081Y035745D01*
X037817Y036124D01*
X037535Y036490D01*
X037235Y036842D01*
X036919Y037179D01*
X036586Y037500D01*
X036239Y037804D01*
X035877Y038092D01*
X035501Y038361D01*
X035113Y038612D01*
X034713Y038843D01*
X034302Y039055D01*
X033881Y039247D01*
X033452Y039418D01*
X033015Y039567D01*
X032571Y039696D01*
X032121Y039802D01*
X031667Y039887D01*
X031209Y039949D01*
X030748Y039989D01*
X030287Y040007D01*
X029824Y040002D01*
X029363Y039975D01*
X028904Y039925D01*
X028447Y039853D01*
X027995Y039759D01*
X027547Y039643D01*
X027106Y039505D01*
X026672Y039346D01*
X026246Y039167D01*
X025830Y038966D01*
X025424Y038746D01*
X025028Y038506D01*
X024646Y038247D01*
X024645Y038248D02*
X024631Y038344D01*
X024612Y038440D01*
X024589Y038535D01*
X024561Y038628D01*
X024528Y038720D01*
X024492Y038810D01*
X024450Y038898D01*
X024405Y038984D01*
X024356Y039068D01*
X024302Y039150D01*
X024245Y039228D01*
X024183Y039304D01*
X024119Y039377D01*
X024050Y039446D01*
X023979Y039513D01*
X023904Y039575D01*
X023826Y039634D01*
X023746Y039689D01*
X023663Y039740D01*
X023578Y039787D01*
X023490Y039830D01*
X023401Y039868D01*
X023309Y039902D01*
X023217Y039932D01*
X023123Y039957D01*
X023027Y039977D01*
X022931Y039993D01*
X022834Y040004D01*
X022737Y040010D01*
X022640Y040012D01*
X022542Y040009D01*
X022445Y040001D01*
X022349Y039988D01*
X022253Y039971D01*
X022158Y039949D01*
X022064Y039923D01*
X021972Y039892D01*
X021881Y039857D01*
X021792Y039817D01*
X021705Y039773D01*
X021621Y039724D01*
X021538Y039672D01*
X021459Y039616D01*
X021382Y039556D01*
X021308Y039492D01*
X021238Y039425D01*
X021171Y039355D01*
X021107Y039281D01*
X021047Y039204D01*
X020991Y039125D01*
X020939Y039042D01*
X020890Y038958D01*
X020846Y038871D01*
X020806Y038782D01*
X020771Y038691D01*
X020740Y038599D01*
X020714Y038505D01*
X020692Y038410D01*
X020675Y038314D01*
X020662Y038218D01*
X020654Y038121D01*
X020651Y038023D01*
X020653Y037926D01*
X020659Y037829D01*
X020670Y037732D01*
X020686Y037636D01*
X020706Y037540D01*
X020731Y037446D01*
X020761Y037354D01*
X020795Y037262D01*
X020833Y037173D01*
X020876Y037085D01*
X020923Y037000D01*
X020974Y036917D01*
X021029Y036837D01*
X021088Y036759D01*
X021150Y036684D01*
X021217Y036613D01*
X021286Y036544D01*
X021359Y036480D01*
X021435Y036418D01*
X021513Y036361D01*
X021595Y036307D01*
X021679Y036258D01*
X021765Y036213D01*
X021853Y036171D01*
X021943Y036135D01*
X022035Y036102D01*
X022128Y036074D01*
X022223Y036051D01*
X022319Y036032D01*
X022415Y036018D01*
X028905Y037758D02*
X028907Y037828D01*
X028913Y037898D01*
X028923Y037967D01*
X028936Y038036D01*
X028954Y038104D01*
X028975Y038171D01*
X029000Y038236D01*
X029029Y038300D01*
X029061Y038363D01*
X029097Y038423D01*
X029136Y038481D01*
X029178Y038537D01*
X029223Y038591D01*
X029271Y038642D01*
X029322Y038690D01*
X029376Y038735D01*
X029432Y038777D01*
X029490Y038816D01*
X029550Y038852D01*
X029613Y038884D01*
X029677Y038913D01*
X029742Y038938D01*
X029809Y038959D01*
X029877Y038977D01*
X029946Y038990D01*
X030015Y039000D01*
X030085Y039006D01*
X030155Y039008D01*
X030225Y039006D01*
X030295Y039000D01*
X030364Y038990D01*
X030433Y038977D01*
X030501Y038959D01*
X030568Y038938D01*
X030633Y038913D01*
X030697Y038884D01*
X030760Y038852D01*
X030820Y038816D01*
X030878Y038777D01*
X030934Y038735D01*
X030988Y038690D01*
X031039Y038642D01*
X031087Y038591D01*
X031132Y038537D01*
X031174Y038481D01*
X031213Y038423D01*
X031249Y038363D01*
X031281Y038300D01*
X031310Y038236D01*
X031335Y038171D01*
X031356Y038104D01*
X031374Y038036D01*
X031387Y037967D01*
X031397Y037898D01*
X031403Y037828D01*
X031405Y037758D01*
X031403Y037688D01*
X031397Y037618D01*
X031387Y037549D01*
X031374Y037480D01*
X031356Y037412D01*
X031335Y037345D01*
X031310Y037280D01*
X031281Y037216D01*
X031249Y037153D01*
X031213Y037093D01*
X031174Y037035D01*
X031132Y036979D01*
X031087Y036925D01*
X031039Y036874D01*
X030988Y036826D01*
X030934Y036781D01*
X030878Y036739D01*
X030820Y036700D01*
X030760Y036664D01*
X030697Y036632D01*
X030633Y036603D01*
X030568Y036578D01*
X030501Y036557D01*
X030433Y036539D01*
X030364Y036526D01*
X030295Y036516D01*
X030225Y036510D01*
X030155Y036508D01*
X030085Y036510D01*
X030015Y036516D01*
X029946Y036526D01*
X029877Y036539D01*
X029809Y036557D01*
X029742Y036578D01*
X029677Y036603D01*
X029613Y036632D01*
X029550Y036664D01*
X029490Y036700D01*
X029432Y036739D01*
X029376Y036781D01*
X029322Y036826D01*
X029271Y036874D01*
X029223Y036925D01*
X029178Y036979D01*
X029136Y037035D01*
X029097Y037093D01*
X029061Y037153D01*
X029029Y037216D01*
X029000Y037280D01*
X028975Y037345D01*
X028954Y037412D01*
X028936Y037480D01*
X028923Y037549D01*
X028913Y037618D01*
X028907Y037688D01*
X028905Y037758D01*
X022416Y036017D02*
X022162Y035643D01*
X021927Y035257D01*
X021711Y034860D01*
X021513Y034454D01*
X021335Y034038D01*
X021177Y033614D01*
X021040Y033184D01*
X020923Y032747D01*
X020827Y032305D01*
X020752Y031860D01*
X020698Y031411D01*
X020666Y030960D01*
X020655Y030508D01*
X019655Y024008D02*
X019657Y023964D01*
X019663Y023921D01*
X019672Y023879D01*
X019685Y023837D01*
X019702Y023797D01*
X019722Y023758D01*
X019745Y023721D01*
X019772Y023687D01*
X019801Y023654D01*
X019834Y023625D01*
X019868Y023598D01*
X019905Y023575D01*
X019944Y023555D01*
X019984Y023538D01*
X020026Y023525D01*
X020068Y023516D01*
X020111Y023510D01*
X020155Y023508D01*
X020155Y021695D02*
X020199Y021693D01*
X020242Y021687D01*
X020284Y021678D01*
X020326Y021665D01*
X020366Y021648D01*
X020405Y021628D01*
X020442Y021605D01*
X020476Y021578D01*
X020509Y021549D01*
X020538Y021516D01*
X020565Y021482D01*
X020588Y021445D01*
X020608Y021406D01*
X020625Y021366D01*
X020638Y021324D01*
X020647Y021282D01*
X020653Y021239D01*
X020655Y021195D01*
X022269Y021795D02*
X022271Y021815D01*
X022277Y021835D01*
X022286Y021853D01*
X022299Y021870D01*
X022314Y021883D01*
X022332Y021893D01*
X022352Y021900D01*
X022372Y021903D01*
X022392Y021902D01*
X022412Y021897D01*
X022431Y021889D01*
X022448Y021877D01*
X022462Y021862D01*
X022473Y021844D01*
X022481Y021825D01*
X022485Y021805D01*
X022485Y021785D01*
X022481Y021765D01*
X022473Y021746D01*
X022462Y021728D01*
X022448Y021713D01*
X022431Y021701D01*
X022412Y021693D01*
X022392Y021688D01*
X022372Y021687D01*
X022352Y021690D01*
X022332Y021697D01*
X022314Y021707D01*
X022299Y021720D01*
X022286Y021737D01*
X022277Y021755D01*
X022271Y021775D01*
X022269Y021795D01*
X022269Y020220D02*
X022271Y020240D01*
X022277Y020260D01*
X022286Y020278D01*
X022299Y020295D01*
X022314Y020308D01*
X022332Y020318D01*
X022352Y020325D01*
X022372Y020328D01*
X022392Y020327D01*
X022412Y020322D01*
X022431Y020314D01*
X022448Y020302D01*
X022462Y020287D01*
X022473Y020269D01*
X022481Y020250D01*
X022485Y020230D01*
X022485Y020210D01*
X022481Y020190D01*
X022473Y020171D01*
X022462Y020153D01*
X022448Y020138D01*
X022431Y020126D01*
X022412Y020118D01*
X022392Y020113D01*
X022372Y020112D01*
X022352Y020115D01*
X022332Y020122D01*
X022314Y020132D01*
X022299Y020145D01*
X022286Y020162D01*
X022277Y020180D01*
X022271Y020200D01*
X022269Y020220D01*
X019655Y016008D02*
X019657Y015964D01*
X019663Y015921D01*
X019672Y015879D01*
X019685Y015837D01*
X019702Y015797D01*
X019722Y015758D01*
X019745Y015721D01*
X019772Y015687D01*
X019801Y015654D01*
X019834Y015625D01*
X019868Y015598D01*
X019905Y015575D01*
X019944Y015555D01*
X019984Y015538D01*
X020026Y015525D01*
X020068Y015516D01*
X020111Y015510D01*
X020155Y015508D01*
X020155Y014633D02*
X020199Y014631D01*
X020242Y014625D01*
X020284Y014616D01*
X020326Y014603D01*
X020366Y014586D01*
X020405Y014566D01*
X020442Y014543D01*
X020476Y014516D01*
X020509Y014487D01*
X020538Y014454D01*
X020565Y014420D01*
X020588Y014383D01*
X020608Y014344D01*
X020625Y014304D01*
X020638Y014262D01*
X020647Y014220D01*
X020653Y014177D01*
X020655Y014133D01*
X019655Y008633D02*
X019657Y008589D01*
X019663Y008546D01*
X019672Y008504D01*
X019685Y008462D01*
X019702Y008422D01*
X019722Y008383D01*
X019745Y008346D01*
X019772Y008312D01*
X019801Y008279D01*
X019834Y008250D01*
X019868Y008223D01*
X019905Y008200D01*
X019944Y008180D01*
X019984Y008163D01*
X020026Y008150D01*
X020068Y008141D01*
X020111Y008135D01*
X020155Y008133D01*
X020155Y006320D02*
X020199Y006318D01*
X020242Y006312D01*
X020284Y006303D01*
X020326Y006290D01*
X020366Y006273D01*
X020405Y006253D01*
X020442Y006230D01*
X020476Y006203D01*
X020509Y006174D01*
X020538Y006141D01*
X020565Y006107D01*
X020588Y006070D01*
X020608Y006031D01*
X020625Y005991D01*
X020638Y005949D01*
X020647Y005907D01*
X020653Y005864D01*
X020655Y005820D01*
X002655Y001008D02*
X002560Y001010D01*
X002465Y001017D01*
X002370Y001028D01*
X002276Y001044D01*
X002183Y001064D01*
X002092Y001089D01*
X002001Y001118D01*
X001912Y001151D01*
X001824Y001189D01*
X001739Y001230D01*
X001655Y001276D01*
X001574Y001325D01*
X001495Y001379D01*
X001419Y001436D01*
X001345Y001497D01*
X001275Y001561D01*
X001208Y001628D01*
X001144Y001698D01*
X001083Y001772D01*
X001026Y001848D01*
X000972Y001927D01*
X000923Y002008D01*
X000877Y002092D01*
X000836Y002177D01*
X000798Y002265D01*
X000765Y002354D01*
X000736Y002445D01*
X000711Y002536D01*
X000691Y002629D01*
X000675Y002723D01*
X000664Y002818D01*
X000657Y002913D01*
X000655Y003008D01*
X000655Y030508D01*
X002415Y036018D02*
X002319Y036032D01*
X002223Y036051D01*
X002128Y036074D01*
X002035Y036102D01*
X001943Y036135D01*
X001853Y036171D01*
X001765Y036213D01*
X001679Y036258D01*
X001595Y036307D01*
X001513Y036361D01*
X001435Y036418D01*
X001359Y036480D01*
X001286Y036544D01*
X001217Y036613D01*
X001150Y036684D01*
X001088Y036759D01*
X001029Y036837D01*
X000974Y036917D01*
X000923Y037000D01*
X000876Y037085D01*
X000833Y037173D01*
X000795Y037262D01*
X000761Y037354D01*
X000731Y037446D01*
X000706Y037540D01*
X000686Y037636D01*
X000670Y037732D01*
X000659Y037829D01*
X000653Y037926D01*
X000651Y038023D01*
X000654Y038121D01*
X000662Y038218D01*
X000675Y038314D01*
X000692Y038410D01*
X000714Y038505D01*
X000740Y038599D01*
X000771Y038691D01*
X000806Y038782D01*
X000846Y038871D01*
X000890Y038958D01*
X000939Y039042D01*
X000991Y039125D01*
X001047Y039204D01*
X001107Y039281D01*
X001171Y039355D01*
X001238Y039425D01*
X001308Y039492D01*
X001382Y039556D01*
X001459Y039616D01*
X001538Y039672D01*
X001621Y039724D01*
X001705Y039773D01*
X001792Y039817D01*
X001881Y039857D01*
X001972Y039892D01*
X002064Y039923D01*
X002158Y039949D01*
X002253Y039971D01*
X002349Y039988D01*
X002445Y040001D01*
X002542Y040009D01*
X002640Y040012D01*
X002737Y040010D01*
X002834Y040004D01*
X002931Y039993D01*
X003027Y039977D01*
X003123Y039957D01*
X003217Y039932D01*
X003309Y039902D01*
X003401Y039868D01*
X003490Y039830D01*
X003578Y039787D01*
X003663Y039740D01*
X003746Y039689D01*
X003826Y039634D01*
X003904Y039575D01*
X003979Y039513D01*
X004050Y039446D01*
X004119Y039377D01*
X004183Y039304D01*
X004245Y039228D01*
X004302Y039150D01*
X004356Y039068D01*
X004405Y038984D01*
X004450Y038898D01*
X004492Y038810D01*
X004528Y038720D01*
X004561Y038628D01*
X004589Y038535D01*
X004612Y038440D01*
X004631Y038344D01*
X004645Y038248D01*
X008905Y037758D02*
X008907Y037828D01*
X008913Y037898D01*
X008923Y037967D01*
X008936Y038036D01*
X008954Y038104D01*
X008975Y038171D01*
X009000Y038236D01*
X009029Y038300D01*
X009061Y038363D01*
X009097Y038423D01*
X009136Y038481D01*
X009178Y038537D01*
X009223Y038591D01*
X009271Y038642D01*
X009322Y038690D01*
X009376Y038735D01*
X009432Y038777D01*
X009490Y038816D01*
X009550Y038852D01*
X009613Y038884D01*
X009677Y038913D01*
X009742Y038938D01*
X009809Y038959D01*
X009877Y038977D01*
X009946Y038990D01*
X010015Y039000D01*
X010085Y039006D01*
X010155Y039008D01*
X010225Y039006D01*
X010295Y039000D01*
X010364Y038990D01*
X010433Y038977D01*
X010501Y038959D01*
X010568Y038938D01*
X010633Y038913D01*
X010697Y038884D01*
X010760Y038852D01*
X010820Y038816D01*
X010878Y038777D01*
X010934Y038735D01*
X010988Y038690D01*
X011039Y038642D01*
X011087Y038591D01*
X011132Y038537D01*
X011174Y038481D01*
X011213Y038423D01*
X011249Y038363D01*
X011281Y038300D01*
X011310Y038236D01*
X011335Y038171D01*
X011356Y038104D01*
X011374Y038036D01*
X011387Y037967D01*
X011397Y037898D01*
X011403Y037828D01*
X011405Y037758D01*
X011403Y037688D01*
X011397Y037618D01*
X011387Y037549D01*
X011374Y037480D01*
X011356Y037412D01*
X011335Y037345D01*
X011310Y037280D01*
X011281Y037216D01*
X011249Y037153D01*
X011213Y037093D01*
X011174Y037035D01*
X011132Y036979D01*
X011087Y036925D01*
X011039Y036874D01*
X010988Y036826D01*
X010934Y036781D01*
X010878Y036739D01*
X010820Y036700D01*
X010760Y036664D01*
X010697Y036632D01*
X010633Y036603D01*
X010568Y036578D01*
X010501Y036557D01*
X010433Y036539D01*
X010364Y036526D01*
X010295Y036516D01*
X010225Y036510D01*
X010155Y036508D01*
X010085Y036510D01*
X010015Y036516D01*
X009946Y036526D01*
X009877Y036539D01*
X009809Y036557D01*
X009742Y036578D01*
X009677Y036603D01*
X009613Y036632D01*
X009550Y036664D01*
X009490Y036700D01*
X009432Y036739D01*
X009376Y036781D01*
X009322Y036826D01*
X009271Y036874D01*
X009223Y036925D01*
X009178Y036979D01*
X009136Y037035D01*
X009097Y037093D01*
X009061Y037153D01*
X009029Y037216D01*
X009000Y037280D01*
X008975Y037345D01*
X008954Y037412D01*
X008936Y037480D01*
X008923Y037549D01*
X008913Y037618D01*
X008907Y037688D01*
X008905Y037758D01*
X004646Y038247D02*
X005028Y038506D01*
X005424Y038746D01*
X005830Y038966D01*
X006246Y039167D01*
X006672Y039346D01*
X007106Y039505D01*
X007547Y039643D01*
X007995Y039759D01*
X008447Y039853D01*
X008904Y039925D01*
X009363Y039975D01*
X009824Y040002D01*
X010287Y040007D01*
X010748Y039989D01*
X011209Y039949D01*
X011667Y039887D01*
X012121Y039802D01*
X012571Y039696D01*
X013015Y039567D01*
X013452Y039418D01*
X013881Y039247D01*
X014302Y039055D01*
X014713Y038843D01*
X015113Y038612D01*
X015501Y038361D01*
X015877Y038092D01*
X016239Y037804D01*
X016586Y037500D01*
X016919Y037179D01*
X017235Y036842D01*
X017535Y036490D01*
X017817Y036124D01*
X018081Y035745D01*
X018327Y035353D01*
X018553Y034950D01*
X018759Y034536D01*
X018944Y034113D01*
X019109Y033681D01*
X019253Y033242D01*
X019375Y032796D01*
X019476Y032345D01*
X019554Y031890D01*
X019610Y031431D01*
X019644Y030970D01*
X019655Y030508D01*
X002416Y036017D02*
X002162Y035643D01*
X001927Y035257D01*
X001711Y034860D01*
X001513Y034454D01*
X001335Y034038D01*
X001177Y033614D01*
X001040Y033184D01*
X000923Y032747D01*
X000827Y032305D01*
X000752Y031860D01*
X000698Y031411D01*
X000666Y030960D01*
X000655Y030508D01*
X002269Y021795D02*
X002271Y021815D01*
X002277Y021835D01*
X002286Y021853D01*
X002299Y021870D01*
X002314Y021883D01*
X002332Y021893D01*
X002352Y021900D01*
X002372Y021903D01*
X002392Y021902D01*
X002412Y021897D01*
X002431Y021889D01*
X002448Y021877D01*
X002462Y021862D01*
X002473Y021844D01*
X002481Y021825D01*
X002485Y021805D01*
X002485Y021785D01*
X002481Y021765D01*
X002473Y021746D01*
X002462Y021728D01*
X002448Y021713D01*
X002431Y021701D01*
X002412Y021693D01*
X002392Y021688D01*
X002372Y021687D01*
X002352Y021690D01*
X002332Y021697D01*
X002314Y021707D01*
X002299Y021720D01*
X002286Y021737D01*
X002277Y021755D01*
X002271Y021775D01*
X002269Y021795D01*
X002269Y020220D02*
X002271Y020240D01*
X002277Y020260D01*
X002286Y020278D01*
X002299Y020295D01*
X002314Y020308D01*
X002332Y020318D01*
X002352Y020325D01*
X002372Y020328D01*
X002392Y020327D01*
X002412Y020322D01*
X002431Y020314D01*
X002448Y020302D01*
X002462Y020287D01*
X002473Y020269D01*
X002481Y020250D01*
X002485Y020230D01*
X002485Y020210D01*
X002481Y020190D01*
X002473Y020171D01*
X002462Y020153D01*
X002448Y020138D01*
X002431Y020126D01*
X002412Y020118D01*
X002392Y020113D01*
X002372Y020112D01*
X002352Y020115D01*
X002332Y020122D01*
X002314Y020132D01*
X002299Y020145D01*
X002286Y020162D01*
X002277Y020180D01*
X002271Y020200D01*
X002269Y020220D01*
D11*
X010155Y037758D03*
X030155Y037758D03*
D12*
X020530Y023383D03*
X020530Y023070D03*
X020530Y022758D03*
X020530Y022445D03*
X020530Y022133D03*
X020530Y021820D03*
X019780Y021820D03*
X019780Y022133D03*
X019780Y022445D03*
X019780Y022758D03*
X019780Y023070D03*
X019780Y023383D03*
X019780Y015383D03*
X019780Y015070D03*
X019780Y014758D03*
X020530Y014758D03*
X020530Y015070D03*
X020530Y015383D03*
X020530Y008008D03*
X020530Y007695D03*
X020530Y007383D03*
X020530Y007070D03*
X020530Y006758D03*
X020530Y006445D03*
X019780Y006445D03*
X019780Y006758D03*
X019780Y007070D03*
X019780Y007383D03*
X019780Y007695D03*
X019780Y008008D03*
D13*
X020155Y007227D03*
D14*
X020155Y022570D03*
D15*
X020155Y015039D03*
D16*
G36*
X017319Y019825D02*
X017728Y020234D01*
X017941Y020021D01*
X017532Y019612D01*
X017319Y019825D01*
G37*
G36*
X017096Y020048D02*
X017505Y020457D01*
X017718Y020244D01*
X017309Y019835D01*
X017096Y020048D01*
G37*
G36*
X016873Y020271D02*
X017282Y020680D01*
X017495Y020467D01*
X017086Y020058D01*
X016873Y020271D01*
G37*
G36*
X016650Y020493D02*
X017059Y020902D01*
X017272Y020689D01*
X016863Y020280D01*
X016650Y020493D01*
G37*
G36*
X016428Y020716D02*
X016837Y021125D01*
X017050Y020912D01*
X016641Y020503D01*
X016428Y020716D01*
G37*
G36*
X016205Y020939D02*
X016614Y021348D01*
X016827Y021135D01*
X016418Y020726D01*
X016205Y020939D01*
G37*
G36*
X015982Y021162D02*
X016391Y021571D01*
X016604Y021358D01*
X016195Y020949D01*
X015982Y021162D01*
G37*
G36*
X015760Y021384D02*
X016169Y021793D01*
X016382Y021580D01*
X015973Y021171D01*
X015760Y021384D01*
G37*
G36*
X013370Y018994D02*
X013779Y019403D01*
X013992Y019190D01*
X013583Y018781D01*
X013370Y018994D01*
G37*
G36*
X013592Y018772D02*
X014001Y019181D01*
X014214Y018968D01*
X013805Y018559D01*
X013592Y018772D01*
G37*
G36*
X013815Y018549D02*
X014224Y018958D01*
X014437Y018745D01*
X014028Y018336D01*
X013815Y018549D01*
G37*
G36*
X014038Y018326D02*
X014447Y018735D01*
X014660Y018522D01*
X014251Y018113D01*
X014038Y018326D01*
G37*
G36*
X014260Y018103D02*
X014669Y018512D01*
X014882Y018299D01*
X014473Y017890D01*
X014260Y018103D01*
G37*
G36*
X014483Y017881D02*
X014892Y018290D01*
X015105Y018077D01*
X014696Y017668D01*
X014483Y017881D01*
G37*
G36*
X014706Y017658D02*
X015115Y018067D01*
X015328Y017854D01*
X014919Y017445D01*
X014706Y017658D01*
G37*
G36*
X014929Y017435D02*
X015338Y017844D01*
X015551Y017631D01*
X015142Y017222D01*
X014929Y017435D01*
G37*
G36*
X033370Y018994D02*
X033779Y019403D01*
X033992Y019190D01*
X033583Y018781D01*
X033370Y018994D01*
G37*
G36*
X033592Y018772D02*
X034001Y019181D01*
X034214Y018968D01*
X033805Y018559D01*
X033592Y018772D01*
G37*
G36*
X033815Y018549D02*
X034224Y018958D01*
X034437Y018745D01*
X034028Y018336D01*
X033815Y018549D01*
G37*
G36*
X034038Y018326D02*
X034447Y018735D01*
X034660Y018522D01*
X034251Y018113D01*
X034038Y018326D01*
G37*
G36*
X034260Y018103D02*
X034669Y018512D01*
X034882Y018299D01*
X034473Y017890D01*
X034260Y018103D01*
G37*
G36*
X034483Y017881D02*
X034892Y018290D01*
X035105Y018077D01*
X034696Y017668D01*
X034483Y017881D01*
G37*
G36*
X034706Y017658D02*
X035115Y018067D01*
X035328Y017854D01*
X034919Y017445D01*
X034706Y017658D01*
G37*
G36*
X034929Y017435D02*
X035338Y017844D01*
X035551Y017631D01*
X035142Y017222D01*
X034929Y017435D01*
G37*
G36*
X037319Y019825D02*
X037728Y020234D01*
X037941Y020021D01*
X037532Y019612D01*
X037319Y019825D01*
G37*
G36*
X037096Y020048D02*
X037505Y020457D01*
X037718Y020244D01*
X037309Y019835D01*
X037096Y020048D01*
G37*
G36*
X036873Y020271D02*
X037282Y020680D01*
X037495Y020467D01*
X037086Y020058D01*
X036873Y020271D01*
G37*
G36*
X036650Y020493D02*
X037059Y020902D01*
X037272Y020689D01*
X036863Y020280D01*
X036650Y020493D01*
G37*
G36*
X036428Y020716D02*
X036837Y021125D01*
X037050Y020912D01*
X036641Y020503D01*
X036428Y020716D01*
G37*
G36*
X036205Y020939D02*
X036614Y021348D01*
X036827Y021135D01*
X036418Y020726D01*
X036205Y020939D01*
G37*
G36*
X035982Y021162D02*
X036391Y021571D01*
X036604Y021358D01*
X036195Y020949D01*
X035982Y021162D01*
G37*
G36*
X035760Y021384D02*
X036169Y021793D01*
X036382Y021580D01*
X035973Y021171D01*
X035760Y021384D01*
G37*
D17*
G36*
X034929Y021580D02*
X035142Y021793D01*
X035551Y021384D01*
X035338Y021171D01*
X034929Y021580D01*
G37*
G36*
X034706Y021358D02*
X034919Y021571D01*
X035328Y021162D01*
X035115Y020949D01*
X034706Y021358D01*
G37*
G36*
X034483Y021135D02*
X034696Y021348D01*
X035105Y020939D01*
X034892Y020726D01*
X034483Y021135D01*
G37*
G36*
X034260Y020912D02*
X034473Y021125D01*
X034882Y020716D01*
X034669Y020503D01*
X034260Y020912D01*
G37*
G36*
X034038Y020689D02*
X034251Y020902D01*
X034660Y020493D01*
X034447Y020280D01*
X034038Y020689D01*
G37*
G36*
X033815Y020467D02*
X034028Y020680D01*
X034437Y020271D01*
X034224Y020058D01*
X033815Y020467D01*
G37*
G36*
X033592Y020244D02*
X033805Y020457D01*
X034214Y020048D01*
X034001Y019835D01*
X033592Y020244D01*
G37*
G36*
X033370Y020021D02*
X033583Y020234D01*
X033992Y019825D01*
X033779Y019612D01*
X033370Y020021D01*
G37*
G36*
X035760Y017631D02*
X035973Y017844D01*
X036382Y017435D01*
X036169Y017222D01*
X035760Y017631D01*
G37*
G36*
X035982Y017854D02*
X036195Y018067D01*
X036604Y017658D01*
X036391Y017445D01*
X035982Y017854D01*
G37*
G36*
X036205Y018077D02*
X036418Y018290D01*
X036827Y017881D01*
X036614Y017668D01*
X036205Y018077D01*
G37*
G36*
X036428Y018299D02*
X036641Y018512D01*
X037050Y018103D01*
X036837Y017890D01*
X036428Y018299D01*
G37*
G36*
X036650Y018522D02*
X036863Y018735D01*
X037272Y018326D01*
X037059Y018113D01*
X036650Y018522D01*
G37*
G36*
X036873Y018745D02*
X037086Y018958D01*
X037495Y018549D01*
X037282Y018336D01*
X036873Y018745D01*
G37*
G36*
X037096Y018968D02*
X037309Y019181D01*
X037718Y018772D01*
X037505Y018559D01*
X037096Y018968D01*
G37*
G36*
X037319Y019190D02*
X037532Y019403D01*
X037941Y018994D01*
X037728Y018781D01*
X037319Y019190D01*
G37*
G36*
X017319Y019190D02*
X017532Y019403D01*
X017941Y018994D01*
X017728Y018781D01*
X017319Y019190D01*
G37*
G36*
X017096Y018968D02*
X017309Y019181D01*
X017718Y018772D01*
X017505Y018559D01*
X017096Y018968D01*
G37*
G36*
X016873Y018745D02*
X017086Y018958D01*
X017495Y018549D01*
X017282Y018336D01*
X016873Y018745D01*
G37*
G36*
X016650Y018522D02*
X016863Y018735D01*
X017272Y018326D01*
X017059Y018113D01*
X016650Y018522D01*
G37*
G36*
X016428Y018299D02*
X016641Y018512D01*
X017050Y018103D01*
X016837Y017890D01*
X016428Y018299D01*
G37*
G36*
X016205Y018077D02*
X016418Y018290D01*
X016827Y017881D01*
X016614Y017668D01*
X016205Y018077D01*
G37*
G36*
X015982Y017854D02*
X016195Y018067D01*
X016604Y017658D01*
X016391Y017445D01*
X015982Y017854D01*
G37*
G36*
X015760Y017631D02*
X015973Y017844D01*
X016382Y017435D01*
X016169Y017222D01*
X015760Y017631D01*
G37*
G36*
X013370Y020021D02*
X013583Y020234D01*
X013992Y019825D01*
X013779Y019612D01*
X013370Y020021D01*
G37*
G36*
X013592Y020244D02*
X013805Y020457D01*
X014214Y020048D01*
X014001Y019835D01*
X013592Y020244D01*
G37*
G36*
X013815Y020467D02*
X014028Y020680D01*
X014437Y020271D01*
X014224Y020058D01*
X013815Y020467D01*
G37*
G36*
X014038Y020689D02*
X014251Y020902D01*
X014660Y020493D01*
X014447Y020280D01*
X014038Y020689D01*
G37*
G36*
X014260Y020912D02*
X014473Y021125D01*
X014882Y020716D01*
X014669Y020503D01*
X014260Y020912D01*
G37*
G36*
X014483Y021135D02*
X014696Y021348D01*
X015105Y020939D01*
X014892Y020726D01*
X014483Y021135D01*
G37*
G36*
X014706Y021358D02*
X014919Y021571D01*
X015328Y021162D01*
X015115Y020949D01*
X014706Y021358D01*
G37*
G36*
X014929Y021580D02*
X015142Y021793D01*
X015551Y021384D01*
X015338Y021171D01*
X014929Y021580D01*
G37*
D18*
X015030Y022423D03*
X015030Y023093D03*
X017280Y023093D03*
X017280Y022423D03*
X018445Y017508D03*
X019115Y017508D03*
X024820Y021258D03*
X025490Y021258D03*
X025490Y022133D03*
X024820Y022133D03*
X024820Y023008D03*
X025490Y023008D03*
X025320Y030008D03*
X025990Y030008D03*
X029320Y030008D03*
X029990Y030008D03*
X032820Y030008D03*
X033490Y030008D03*
X036820Y030008D03*
X037490Y030008D03*
X037280Y023093D03*
X037280Y022423D03*
X035030Y022423D03*
X035030Y023093D03*
X038445Y017508D03*
X039115Y017508D03*
X036740Y008758D03*
X036070Y008758D03*
X032240Y008758D03*
X031570Y008758D03*
X027240Y008758D03*
X026570Y008758D03*
X022740Y008758D03*
X022070Y008758D03*
X016740Y008758D03*
X016070Y008758D03*
X012240Y008758D03*
X011570Y008758D03*
X007240Y008758D03*
X006570Y008758D03*
X002740Y008758D03*
X002070Y008758D03*
X004820Y021258D03*
X005490Y021258D03*
X005490Y022133D03*
X004820Y022133D03*
X004820Y023008D03*
X005490Y023008D03*
X005320Y030008D03*
X005990Y030008D03*
X009320Y030008D03*
X009990Y030008D03*
X012820Y030008D03*
X013490Y030008D03*
X016820Y030008D03*
X017490Y030008D03*
X021320Y030008D03*
X021990Y030008D03*
X001990Y030008D03*
X001320Y030008D03*
D19*
X001305Y029008D03*
X002305Y029008D03*
X003305Y029008D03*
X004305Y029008D03*
X005305Y029008D03*
X006305Y029008D03*
X007305Y029008D03*
X008305Y029008D03*
X009305Y029008D03*
X010305Y029008D03*
X011905Y029008D03*
X012905Y029008D03*
X013905Y029008D03*
X014905Y029008D03*
X015905Y029008D03*
X016905Y029008D03*
X017905Y029008D03*
X018905Y029008D03*
X021305Y029008D03*
X022305Y029008D03*
X023305Y029008D03*
X024305Y029008D03*
X025305Y029008D03*
X026305Y029008D03*
X027305Y029008D03*
X028305Y029008D03*
X029305Y029008D03*
X030305Y029008D03*
X031905Y029008D03*
X032905Y029008D03*
X033905Y029008D03*
X034905Y029008D03*
X035905Y029008D03*
X036905Y029008D03*
X037905Y029008D03*
X038905Y029008D03*
X038905Y010008D03*
X037905Y010008D03*
X036905Y010008D03*
X035905Y010008D03*
X034905Y010008D03*
X033905Y010008D03*
X031905Y010008D03*
X030905Y010008D03*
X029905Y010008D03*
X028905Y010008D03*
X027905Y010008D03*
X026905Y010008D03*
X025905Y010008D03*
X024905Y010008D03*
X018905Y010008D03*
X017905Y010008D03*
X016905Y010008D03*
X015905Y010008D03*
X014905Y010008D03*
X013905Y010008D03*
X011905Y010008D03*
X010905Y010008D03*
X009905Y010008D03*
X008905Y010008D03*
X007905Y010008D03*
X006905Y010008D03*
X005905Y010008D03*
X004905Y010008D03*
D20*
X011820Y016633D03*
X012490Y016633D03*
X012490Y018383D03*
X011820Y018383D03*
G36*
X017181Y021146D02*
X016820Y021507D01*
X017155Y021842D01*
X017516Y021481D01*
X017181Y021146D01*
G37*
G36*
X017655Y020673D02*
X017294Y021034D01*
X017629Y021369D01*
X017990Y021008D01*
X017655Y020673D01*
G37*
X031820Y018383D03*
X032490Y018383D03*
X032490Y016633D03*
X031820Y016633D03*
G36*
X037181Y021146D02*
X036820Y021507D01*
X037155Y021842D01*
X037516Y021481D01*
X037181Y021146D01*
G37*
G36*
X037655Y020673D02*
X037294Y021034D01*
X037629Y021369D01*
X037990Y021008D01*
X037655Y020673D01*
G37*
D21*
X037250Y031008D03*
X036660Y031008D03*
X036660Y032008D03*
X037250Y032008D03*
X038610Y032008D03*
X039200Y032008D03*
X039200Y031008D03*
X038610Y031008D03*
X035300Y031008D03*
X034710Y031008D03*
X034710Y032008D03*
X035300Y032008D03*
X033350Y032008D03*
X032760Y032008D03*
X032760Y031008D03*
X033350Y031008D03*
X031400Y031008D03*
X030810Y031008D03*
X030810Y032008D03*
X031400Y032008D03*
X029450Y032008D03*
X028860Y032008D03*
X028860Y031008D03*
X029450Y031008D03*
X027500Y031008D03*
X026910Y031008D03*
X026910Y032008D03*
X027500Y032008D03*
X025550Y032008D03*
X024960Y032008D03*
X024960Y031008D03*
X025550Y031008D03*
X023600Y031008D03*
X023010Y031008D03*
X023010Y032008D03*
X023600Y032008D03*
X021775Y032008D03*
X021185Y032008D03*
X021060Y031008D03*
X021650Y031008D03*
X019200Y031008D03*
X018610Y031008D03*
X018610Y032008D03*
X019200Y032008D03*
X017250Y032008D03*
X016660Y032008D03*
X016660Y031008D03*
X017250Y031008D03*
X015300Y031008D03*
X014710Y031008D03*
X014710Y032008D03*
X015300Y032008D03*
X013350Y032008D03*
X012760Y032008D03*
X012760Y031008D03*
X013350Y031008D03*
X011400Y031008D03*
X010810Y031008D03*
X010810Y032008D03*
X011400Y032008D03*
X009450Y032008D03*
X008860Y032008D03*
X008860Y031008D03*
X009450Y031008D03*
X007500Y031008D03*
X006910Y031008D03*
X006910Y032008D03*
X007500Y032008D03*
X005550Y032008D03*
X004960Y032008D03*
X004960Y031008D03*
X005550Y031008D03*
X003600Y031008D03*
X003010Y031008D03*
X003010Y032008D03*
X003600Y032008D03*
X001775Y032008D03*
X001185Y032008D03*
X001060Y031008D03*
X001650Y031008D03*
D22*
X003355Y030008D03*
X003955Y030008D03*
X007355Y030008D03*
X007955Y030008D03*
X010855Y030008D03*
X011455Y030008D03*
X014855Y030008D03*
X015455Y030008D03*
X018605Y030008D03*
X019205Y030008D03*
X023355Y030008D03*
X023955Y030008D03*
X027355Y030008D03*
X027955Y030008D03*
X030855Y030008D03*
X031455Y030008D03*
X034855Y030008D03*
X035455Y030008D03*
X038605Y030008D03*
X039205Y030008D03*
X038205Y008758D03*
X037605Y008758D03*
X033705Y008758D03*
X033105Y008758D03*
X028705Y008758D03*
X028105Y008758D03*
X024205Y008758D03*
X023605Y008758D03*
X018205Y008758D03*
X017605Y008758D03*
X013705Y008758D03*
X013105Y008758D03*
X008705Y008758D03*
X008105Y008758D03*
X004205Y008758D03*
X003605Y008758D03*
D23*
X003905Y008758D03*
X008405Y008758D03*
X013405Y008758D03*
X017905Y008758D03*
X023905Y008758D03*
X028405Y008758D03*
X033405Y008758D03*
X037905Y008758D03*
X038905Y030008D03*
X035155Y030008D03*
X031155Y030008D03*
X027655Y030008D03*
X023655Y030008D03*
X018905Y030008D03*
X015155Y030008D03*
X011155Y030008D03*
X007655Y030008D03*
X003655Y030008D03*
D24*
X002693Y014894D03*
X002693Y013713D03*
X002693Y013122D03*
X022693Y013122D03*
X022693Y013713D03*
X022693Y014894D03*
D25*
X022358Y015484D03*
X022358Y012531D03*
X002358Y012531D03*
X002358Y015484D03*
D26*
X001452Y015445D03*
X001452Y012571D03*
X021452Y012571D03*
X021452Y015445D03*
D27*
X012529Y017508D03*
X011781Y017508D03*
X031781Y017508D03*
X032529Y017508D03*
D28*
X032905Y010527D02*
X032837Y010521D01*
X032770Y010503D01*
X032708Y010474D01*
X033102Y010474D01*
X033040Y010503D01*
X032973Y010521D01*
X032905Y010527D01*
X032857Y010522D02*
X032953Y010522D01*
X033102Y010474D02*
X033158Y010434D01*
X033207Y010386D01*
X033246Y010330D01*
X033275Y010268D01*
X033293Y010201D01*
X033299Y010133D01*
X033293Y010065D01*
X033275Y009998D01*
X033246Y009936D01*
X033207Y009880D01*
X033158Y009831D01*
X033102Y009792D01*
X033040Y009763D01*
X032973Y009745D01*
X032905Y009739D01*
X032837Y009745D01*
X032770Y009763D01*
X032708Y009792D01*
X032652Y009831D01*
X032604Y009880D01*
X032564Y009936D01*
X032535Y009998D01*
X032517Y010065D01*
X032511Y010133D01*
X032517Y010201D01*
X032535Y010268D01*
X032564Y010330D01*
X032604Y010386D01*
X032652Y010434D01*
X032708Y010474D01*
X032643Y010425D02*
X033167Y010425D01*
X033213Y010377D02*
X032597Y010377D01*
X032563Y010328D02*
X033247Y010328D01*
X033269Y010280D02*
X032541Y010280D01*
X032525Y010231D02*
X033285Y010231D01*
X033294Y010183D02*
X032516Y010183D01*
X032512Y010134D02*
X033299Y010134D01*
X033295Y010085D02*
X032516Y010085D01*
X032525Y010037D02*
X033285Y010037D01*
X033270Y009988D02*
X032540Y009988D01*
X032562Y009940D02*
X033248Y009940D01*
X033215Y009891D02*
X032595Y009891D01*
X032641Y009843D02*
X033170Y009843D01*
X033105Y009794D02*
X032705Y009794D01*
X032835Y009746D02*
X032975Y009746D01*
X022049Y010008D02*
X022043Y010076D01*
X022025Y010143D01*
X021996Y010205D01*
X021957Y010261D01*
X021908Y010309D01*
X021852Y010349D01*
X021790Y010378D01*
X021723Y010396D01*
X021655Y010402D01*
X021587Y010396D01*
X021520Y010378D01*
X021458Y010349D01*
X021402Y010309D01*
X021354Y010261D01*
X021314Y010205D01*
X021285Y010143D01*
X021267Y010076D01*
X021261Y010008D01*
X021267Y009940D01*
X022043Y009940D01*
X022049Y010008D01*
X022047Y009988D02*
X021263Y009988D01*
X021267Y009940D02*
X021285Y009873D01*
X021314Y009811D01*
X021354Y009755D01*
X021402Y009706D01*
X021458Y009667D01*
X021520Y009638D01*
X021587Y009620D01*
X021655Y009614D01*
X021723Y009620D01*
X021790Y009638D01*
X021852Y009667D01*
X021908Y009706D01*
X021957Y009755D01*
X021996Y009811D01*
X022025Y009873D01*
X022043Y009940D01*
X022030Y009891D02*
X021280Y009891D01*
X021299Y009843D02*
X022011Y009843D01*
X021984Y009794D02*
X021326Y009794D01*
X021363Y009746D02*
X021948Y009746D01*
X021895Y009697D02*
X021415Y009697D01*
X021498Y009649D02*
X021813Y009649D01*
X022046Y010037D02*
X021264Y010037D01*
X021270Y010085D02*
X022040Y010085D01*
X022027Y010134D02*
X021283Y010134D01*
X021304Y010183D02*
X022006Y010183D01*
X021978Y010231D02*
X021333Y010231D01*
X021372Y010280D02*
X021938Y010280D01*
X021881Y010328D02*
X021429Y010328D01*
X021518Y010377D02*
X021792Y010377D01*
X013299Y010133D02*
X013293Y010201D01*
X013275Y010268D01*
X013246Y010330D01*
X013207Y010386D01*
X013158Y010434D01*
X013102Y010474D01*
X012708Y010474D01*
X012652Y010434D01*
X012604Y010386D01*
X012564Y010330D01*
X012535Y010268D01*
X012517Y010201D01*
X012511Y010133D01*
X012517Y010065D01*
X012535Y009998D01*
X012564Y009936D01*
X012604Y009880D01*
X012652Y009831D01*
X012708Y009792D01*
X012770Y009763D01*
X012837Y009745D01*
X012905Y009739D01*
X012973Y009745D01*
X013040Y009763D01*
X013102Y009792D01*
X013158Y009831D01*
X013207Y009880D01*
X013246Y009936D01*
X013275Y009998D01*
X013293Y010065D01*
X013299Y010133D01*
X013299Y010134D02*
X012512Y010134D01*
X012516Y010085D02*
X013295Y010085D01*
X013285Y010037D02*
X012525Y010037D01*
X012540Y009988D02*
X013270Y009988D01*
X013248Y009940D02*
X012562Y009940D01*
X012595Y009891D02*
X013215Y009891D01*
X013170Y009843D02*
X012641Y009843D01*
X012705Y009794D02*
X013105Y009794D01*
X012975Y009746D02*
X012835Y009746D01*
X012516Y010183D02*
X013294Y010183D01*
X013285Y010231D02*
X012525Y010231D01*
X012541Y010280D02*
X013269Y010280D01*
X013247Y010328D02*
X012563Y010328D01*
X012597Y010377D02*
X013213Y010377D01*
X013167Y010425D02*
X012643Y010425D01*
X012708Y010474D02*
X012770Y010503D01*
X012837Y010521D01*
X012905Y010527D01*
X012973Y010521D01*
X013040Y010503D01*
X013102Y010474D01*
X012953Y010522D02*
X012857Y010522D01*
X002049Y010008D02*
X002043Y010076D01*
X002025Y010143D01*
X001996Y010205D01*
X001957Y010261D01*
X001908Y010309D01*
X001852Y010349D01*
X001790Y010378D01*
X001723Y010396D01*
X001655Y010402D01*
X001587Y010396D01*
X001520Y010378D01*
X001458Y010349D01*
X001402Y010309D01*
X001354Y010261D01*
X001314Y010205D01*
X001285Y010143D01*
X001267Y010076D01*
X001261Y010008D01*
X001267Y009940D01*
X002043Y009940D01*
X002049Y010008D01*
X002047Y009988D02*
X001263Y009988D01*
X001267Y009940D02*
X001285Y009873D01*
X001314Y009811D01*
X001354Y009755D01*
X001402Y009706D01*
X001458Y009667D01*
X001520Y009638D01*
X001587Y009620D01*
X001655Y009614D01*
X001723Y009620D01*
X001790Y009638D01*
X001852Y009667D01*
X001908Y009706D01*
X001957Y009755D01*
X001996Y009811D01*
X002025Y009873D01*
X002043Y009940D01*
X002030Y009891D02*
X001280Y009891D01*
X001299Y009843D02*
X002011Y009843D01*
X001984Y009794D02*
X001326Y009794D01*
X001363Y009746D02*
X001948Y009746D01*
X001895Y009697D02*
X001415Y009697D01*
X001498Y009649D02*
X001813Y009649D01*
X002046Y010037D02*
X001264Y010037D01*
X001270Y010085D02*
X002040Y010085D01*
X002027Y010134D02*
X001283Y010134D01*
X001304Y010183D02*
X002006Y010183D01*
X001978Y010231D02*
X001333Y010231D01*
X001372Y010280D02*
X001938Y010280D01*
X001881Y010328D02*
X001429Y010328D01*
X001518Y010377D02*
X001792Y010377D01*
X002655Y037614D02*
X002723Y037620D01*
X002790Y037638D01*
X002852Y037667D01*
X002908Y037706D01*
X002957Y037755D01*
X002353Y037755D01*
X002354Y037755D02*
X002402Y037706D01*
X002458Y037667D01*
X002520Y037638D01*
X002587Y037620D01*
X002655Y037614D01*
X002477Y037658D02*
X002833Y037658D01*
X002909Y037707D02*
X002402Y037707D01*
X002354Y037755D02*
X002314Y037811D01*
X002285Y037873D01*
X002267Y037940D01*
X002261Y038008D01*
X002267Y038076D01*
X002285Y038143D01*
X002314Y038205D01*
X002354Y038261D01*
X002402Y038309D01*
X002458Y038349D01*
X002520Y038378D01*
X002587Y038396D01*
X002655Y038402D01*
X002723Y038396D01*
X002790Y038378D01*
X002852Y038349D01*
X002908Y038309D01*
X002957Y038261D01*
X002996Y038205D01*
X003025Y038143D01*
X003043Y038076D01*
X003049Y038008D01*
X003043Y037940D01*
X003025Y037873D01*
X002996Y037811D01*
X002957Y037755D01*
X002991Y037804D02*
X002319Y037804D01*
X002295Y037852D02*
X003015Y037852D01*
X003032Y037901D02*
X002278Y037901D01*
X002267Y037949D02*
X003044Y037949D01*
X003048Y037998D02*
X002262Y037998D01*
X002265Y038046D02*
X003045Y038046D01*
X003038Y038095D02*
X002272Y038095D01*
X002286Y038144D02*
X003025Y038144D01*
X003002Y038192D02*
X002308Y038192D01*
X002339Y038241D02*
X002971Y038241D01*
X002929Y038289D02*
X002382Y038289D01*
X002442Y038338D02*
X002868Y038338D01*
X002758Y038386D02*
X002552Y038386D01*
X022261Y038008D02*
X022267Y038076D01*
X022285Y038143D01*
X022314Y038205D01*
X022354Y038261D01*
X022402Y038309D01*
X022458Y038349D01*
X022520Y038378D01*
X022587Y038396D01*
X022655Y038402D01*
X022723Y038396D01*
X022790Y038378D01*
X022852Y038349D01*
X022908Y038309D01*
X022957Y038261D01*
X022996Y038205D01*
X023025Y038143D01*
X023043Y038076D01*
X023049Y038008D01*
X023043Y037940D01*
X023025Y037873D01*
X022996Y037811D01*
X022957Y037755D01*
X022353Y037755D01*
X022354Y037755D02*
X022402Y037706D01*
X022458Y037667D01*
X022520Y037638D01*
X022587Y037620D01*
X022655Y037614D01*
X022723Y037620D01*
X022790Y037638D01*
X022852Y037667D01*
X022908Y037706D01*
X022957Y037755D01*
X022991Y037804D02*
X022319Y037804D01*
X022314Y037811D02*
X022354Y037755D01*
X022402Y037707D02*
X022909Y037707D01*
X022833Y037658D02*
X022477Y037658D01*
X022314Y037811D02*
X022285Y037873D01*
X022267Y037940D01*
X022261Y038008D01*
X022262Y037998D02*
X023048Y037998D01*
X023045Y038046D02*
X022265Y038046D01*
X022272Y038095D02*
X023038Y038095D01*
X023025Y038144D02*
X022286Y038144D01*
X022308Y038192D02*
X023002Y038192D01*
X022971Y038241D02*
X022339Y038241D01*
X022382Y038289D02*
X022929Y038289D01*
X022868Y038338D02*
X022442Y038338D01*
X022552Y038386D02*
X022758Y038386D01*
X023044Y037949D02*
X022267Y037949D01*
X022278Y037901D02*
X023032Y037901D01*
X023015Y037852D02*
X022295Y037852D01*
D29*
X022682Y021520D03*
X022682Y021264D03*
X022682Y021008D03*
X022682Y020752D03*
X022682Y020496D03*
X002682Y020496D03*
X002682Y020752D03*
X002682Y021008D03*
X002682Y021264D03*
X002682Y021520D03*
D30*
X002377Y021795D03*
X002377Y020220D03*
X022377Y020220D03*
X022377Y021795D03*
D31*
X021530Y022120D03*
X021530Y019896D03*
X001530Y019896D03*
X001530Y022120D03*
D32*
X001530Y021008D03*
X021530Y021008D03*
D33*
X016470Y022325D03*
X015840Y022325D03*
X015840Y023191D03*
X016470Y023191D03*
X035840Y023191D03*
X036470Y023191D03*
X036470Y022325D03*
X035840Y022325D03*
D34*
X035620Y007508D03*
X034191Y007508D03*
X031120Y007508D03*
X029191Y007508D03*
X026120Y007508D03*
X024691Y007508D03*
X021620Y007508D03*
X018691Y007508D03*
X015620Y007508D03*
X014191Y007508D03*
X011120Y007508D03*
X009191Y007508D03*
X006120Y007508D03*
X004691Y007508D03*
X001620Y007508D03*
X038691Y007508D03*
D35*
X026139Y018383D03*
X024171Y018383D03*
X006139Y018383D03*
X004171Y018383D03*
D36*
X004154Y022075D03*
X003406Y022075D03*
X003780Y022941D03*
X023406Y022075D03*
X024154Y022075D03*
X023780Y022941D03*
M02*
