%
M48
M72
T01C0.0157
T02C0.0197
T03C0.0217
T04C0.0394
T05C0.2500
%
T01
X1030Y31508
X1655Y31508
X2155Y31008
X2405Y30633
X3280Y31633
X4030Y32008
X4655Y31383
X5280Y31633
X6030Y31008
X6530Y30633
X7155Y31383
X8030Y32008
X8405Y31008
X9155Y31383
X9780Y31633
X10405Y31008
X10155Y30633
X21030Y31508
X21655Y31508
X22155Y31008
X22405Y30633
X23280Y31633
X24030Y32008
X24655Y31383
X25280Y31633
X26030Y31008
X26530Y30633
X27155Y31383
X28030Y32008
X28405Y31008
X29155Y31383
X29780Y31633
X30405Y31008
X30155Y30633
X19780Y6445
X19780Y6758
X19780Y7070
X19780Y7383
X19780Y7695
X19780Y8008
X19780Y14758
X19780Y15070
X19780Y15383
X19780Y21820
X19780Y22133
X19780Y22445
X19780Y22758
X19780Y23070
X19780Y23383
X20530Y23383
X20530Y23070
X20530Y22758
X20530Y22445
X20530Y22133
X20530Y21820
X20530Y15383
X20530Y15070
X20530Y14758
X20530Y8008
X20530Y7695
X20530Y7383
X20530Y7070
X20530Y6758
X20530Y6445
X16030Y30008
X15780Y31008
X16155Y31633
X17655Y31633
X18030Y31383
X17780Y30633
X19280Y31508
X18905Y32383
X14155Y32008
X13655Y31633
X13030Y31383
X11905Y32008
X14155Y30633
X31905Y32008
X33030Y31383
X33655Y31633
X34155Y32008
X34155Y30633
X35780Y31008
X36155Y31633
X37655Y31633
X38030Y31383
X37780Y30633
X39280Y31508
X38905Y32383
X36030Y30008
T02
X23280Y22633
X25655Y20508
X26030Y21008
X29530Y20133
X31905Y19883
X33280Y19508
X33155Y19008
X33155Y18008
X33155Y17508
X33905Y16394
X34905Y16394
X35905Y16394
X36905Y16394
X37905Y16394
X38655Y17008
X38780Y16410
X37905Y17508
X37155Y19508
X36280Y19133
X35780Y19008
X35405Y18758
X35405Y18258
X35655Y19695
X35655Y21008
X37405Y11008
X36030Y8258
X31530Y8258
X26530Y8258
X22030Y8258
X17405Y11008
X16030Y8258
X23405Y13133
X23405Y13758
X23405Y14883
X18780Y16410
X18655Y17008
X17905Y17508
X17905Y16394
X16905Y16394
X15905Y16394
X14905Y16394
X13905Y16394
X13155Y17508
X13155Y18008
X13155Y19008
X13280Y19508
X11905Y19883
X9530Y20133
X6030Y21008
X5655Y20508
X3280Y22633
X3405Y14883
X3405Y13758
X3405Y13133
X2030Y8258
X6530Y8258
X11530Y8258
X15405Y18758
X15780Y19008
X16280Y19133
X15655Y19695
X15655Y21008
X17155Y19508
X15405Y18258
T03
X22377Y21795
X22377Y20220
X2377Y21795
X2377Y20220
T04
X1305Y29008
X2305Y29008
X3305Y29008
X4305Y29008
X5305Y29008
X6305Y29008
X7305Y29008
X8305Y29008
X9305Y29008
X10305Y29008
X1530Y22120
X1530Y19896
X4171Y18383
X6139Y18383
X5905Y10008
X4905Y10008
X6905Y10008
X7905Y10008
X8905Y10008
X9905Y10008
X10905Y10008
X11905Y10008
X13905Y10008
X14905Y10008
X15905Y10008
X16905Y10008
X17905Y10008
X18905Y10008
X38905Y29008
X37905Y29008
X36905Y29008
X35905Y29008
X34905Y29008
X33905Y29008
X32905Y29008
X31905Y29008
X30305Y29008
X29305Y29008
X28305Y29008
X27305Y29008
X26305Y29008
X25305Y29008
X24305Y29008
X23305Y29008
X22305Y29008
X21305Y29008
X18905Y29008
X17905Y29008
X16905Y29008
X15905Y29008
X14905Y29008
X13905Y29008
X12905Y29008
X11905Y29008
X21530Y22120
X21530Y19896
X24171Y18383
X26139Y18383
X24905Y10008
X25905Y10008
X26905Y10008
X27905Y10008
X28905Y10008
X29905Y10008
X30905Y10008
X31905Y10008
X33905Y10008
X34905Y10008
X35905Y10008
X36905Y10008
X37905Y10008
X38905Y10008
T05
X10155Y37758
X30155Y37758
M30
