  0
SECTION
  2
HEADER
  9
$ACADVER
  1
AC1009
  9
$FILLMODE
 70
1
  9
$EXTMIN
 10
-1.4080
 20
-1.4080
 30
0.0000
  9
$EXTMAX
 10
50.9440
 20
100.4800
 30
0.0000
  0
ENDSEC
  0
SECTION
  2
TABLES
  0
TABLE
  2
LTYPE
 70
1
  0
LTYPE
  2
CONTINUOUS
 70
64
  3
Solid line
 72
65
 73
0
 40
0
  0
ENDTAB
  0
TABLE
  2
LAYER
 70
255
  0
LAYER
  2
31
 70
64
 62
253
  6
CONTINUOUS
  0
ENDTAB
  0
ENDSEC
  0
SECTION
  2
BLOCKS
  0
BLOCK
  8
0
  2
RECT
 70
64
 10
0.0000
 20
0.0000
 30
0.0000
  3
RECT
  0
SOLID
  8
0
 10
-0.5000
 20
-0.5000
 30
0.0000
 11
0.5000
 21
-0.5000
 31
0.0000
 12
-0.5000
 22
0.5000
 32
0.0000
 13
0.5000
 23
0.5000
 33
0.0000
  0
ENDBLK
  8
0
  0
BLOCK
  8
0
  2
PIE
 70
64
 10
0.0000
 20
0.0000
 30
0.0000
  3
PIE
  0
POLYLINE
  8
0
 66
1
 10
0.0000
 20
0.0000
 30
0.0000
 40
0.5000
 41
0.5000
 70
0
  0
VERTEX
  8
0
 10
0.0000
 20
-0.2500
 30
0.0000
 42
1.0000
  0
VERTEX
  8
0
 10
0.0000
 20
0.2500
 30
0.0000
 42
1.0000
  0
VERTEX
  8
0
 10
0.0000
 20
-0.2500
 30
0.0000
  0
SEQEND
  8
0
  0
ENDBLK
  8
0
  0
BLOCK
  8
0
  2
OCTAGONP
 70
64
 10
0.0000
 20
0.0000
 30
0.0000
  3
OCTAGONP
  0
POLYLINE
  8
0
 66
1
 10
0.0000
 20
0.0000
 30
0.0000
 40
0.5000
 41
0.5000
 70
0
  0
VERTEX
  8
0
 10
-0.2500
 20
-0.1036
 30
0.0000
  0
VERTEX
  8
0
 10
-0.2500
 20
0.1036
 30
0.0000
  0
VERTEX
  8
0
 10
-0.1036
 20
0.2500
 30
0.0000
  0
VERTEX
  8
0
 10
0.1036
 20
0.2500
 30
0.0000
  0
VERTEX
  8
0
 10
0.2500
 20
0.1036
 30
0.0000
  0
VERTEX
  8
0
 10
0.2500
 20
-0.1036
 30
0.0000
  0
VERTEX
  8
0
 10
0.1036
 20
-0.2500
 30
0.0000
  0
VERTEX
  8
0
 10
-0.1036
 20
-0.2500
 30
0.0000
  0
VERTEX
  8
0
 10
-0.2500
 20
-0.1036
 30
0.0000
  0
VERTEX
  8
0
 10
-0.2500
 20
0.1036
 30
0.0000
  0
SEQEND
  8
0
  0
ENDBLK
  8
0
  0
BLOCK
  8
0
  2
SQUAREP
 70
64
 10
0.0000
 20
0.0000
 30
0.0000
  3
SQUAREP
  0
SOLID
  8
0
 10
-0.5000
 20
-0.5000
 30
0.0000
 11
0.5000
 21
-0.5000
 31
0.0000
 12
-0.5000
 22
0.5000
 32
0.0000
 13
0.5000
 23
0.5000
 33
0.0000
  0
ENDBLK
  8
0
  0
BLOCK
  8
0
  2
ROUNDP
 70
64
 10
0.0000
 20
0.0000
 30
0.0000
  3
ROUNDP
  0
POLYLINE
  8
0
 66
1
 10
0.0000
 20
0.0000
 30
0.0000
 40
0.5000
 41
0.5000
 70
0
  0
VERTEX
  8
0
 10
0.0000
 20
-0.2500
 30
0.0000
 42
1.0000
  0
VERTEX
  8
0
 10
0.0000
 20
0.2500
 30
0.0000
 42
1.0000
  0
VERTEX
  8
0
 10
0.0000
 20
-0.2500
 30
0.0000
  0
SEQEND
  8
0
  0
ENDBLK
  8
0
  0
BLOCK
  8
0
  2
ANNULUSP
 70
64
 10
0.0000
 20
0.0000
 30
0.0000
  3
ANNULUSP
  0
POLYLINE
  8
0
 66
1
 10
0.0000
 20
0.0000
 30
0.0000
 40
0.5000
 41
0.5000
 70
0
  0
VERTEX
  8
0
 10
0.0000
 20
-0.2500
 30
0.0000
 42
1.0000
  0
VERTEX
  8
0
 10
0.0000
 20
0.2500
 30
0.0000
 42
1.0000
  0
VERTEX
  8
0
 10
0.0000
 20
-0.2500
 30
0.0000
  0
SEQEND
  8
0
  0
ENDBLK
  8
0
  0
BLOCK
  8
0
  2
THERMALP
 70
64
 10
0.0000
 20
0.0000
 30
0.0000
  3
THERMALP
  0
POLYLINE
  8
0
 66
1
 10
0.0000
 20
0.0000
 30
0.0000
 40
0.1000
 41
0.1000
 70
0
  0
VERTEX
  8
0
 10
-0.2379
 20
0.4500
 30
0.0000
  0
VERTEX
  8
0
 10
0.2379
 20
0.4500
 30
0.0000
  0
SEQEND
  8
0
  0
POLYLINE
  8
0
 66
1
 10
0.0000
 20
0.0000
 30
0.0000
 40
0.0500
 41
0.0500
 70
0
  0
VERTEX
  8
0
 10
0.2379
 20
0.4250
 30
0.0000
 42
1.0000
  0
VERTEX
  8
0
 10
0.2379
 20
0.4750
 30
0.0000
  0
SEQEND
  8
0
  0
POLYLINE
  8
0
 66
1
 10
0.0000
 20
0.0000
 30
0.0000
 40
0.0500
 41
0.0500
 70
0
  0
VERTEX
  8
0
 10
-0.2379
 20
0.4750
 30
0.0000
 42
1.0000
  0
VERTEX
  8
0
 10
-0.2379
 20
0.4250
 30
0.0000
  0
SEQEND
  8
0
  0
POLYLINE
  8
0
 66
1
 10
0.0000
 20
0.0000
 30
0.0000
 40
0.1000
 41
0.1000
 70
0
  0
VERTEX
  8
0
 10
0.4500
 20
0.2379
 30
0.0000
  0
VERTEX
  8
0
 10
0.4500
 20
-0.2379
 30
0.0000
  0
SEQEND
  8
0
  0
POLYLINE
  8
0
 66
1
 10
0.0000
 20
0.0000
 30
0.0000
 40
0.0500
 41
0.0500
 70
0
  0
VERTEX
  8
0
 10
0.4250
 20
-0.2379
 30
0.0000
 42
1.0000
  0
VERTEX
  8
0
 10
0.4750
 20
-0.2379
 30
0.0000
  0
SEQEND
  8
0
  0
POLYLINE
  8
0
 66
1
 10
0.0000
 20
0.0000
 30
0.0000
 40
0.0500
 41
0.0500
 70
0
  0
VERTEX
  8
0
 10
0.4750
 20
0.2379
 30
0.0000
 42
1.0000
  0
VERTEX
  8
0
 10
0.4250
 20
0.2379
 30
0.0000
  0
SEQEND
  8
0
  0
POLYLINE
  8
0
 66
1
 10
0.0000
 20
0.0000
 30
0.0000
 40
0.1000
 41
0.1000
 70
0
  0
VERTEX
  8
0
 10
0.2379
 20
-0.4500
 30
0.0000
  0
VERTEX
  8
0
 10
-0.2379
 20
-0.4500
 30
0.0000
  0
SEQEND
  8
0
  0
POLYLINE
  8
0
 66
1
 10
0.0000
 20
0.0000
 30
0.0000
 40
0.0500
 41
0.0500
 70
0
  0
VERTEX
  8
0
 10
-0.2379
 20
-0.4250
 30
0.0000
 42
1.0000
  0
VERTEX
  8
0
 10
-0.2379
 20
-0.4750
 30
0.0000
  0
SEQEND
  8
0
  0
POLYLINE
  8
0
 66
1
 10
0.0000
 20
0.0000
 30
0.0000
 40
0.0500
 41
0.0500
 70
0
  0
VERTEX
  8
0
 10
0.2379
 20
-0.4750
 30
0.0000
 42
1.0000
  0
VERTEX
  8
0
 10
0.2379
 20
-0.4250
 30
0.0000
  0
SEQEND
  8
0
  0
POLYLINE
  8
0
 66
1
 10
0.0000
 20
0.0000
 30
0.0000
 40
0.1000
 41
0.1000
 70
0
  0
VERTEX
  8
0
 10
-0.4500
 20
-0.2379
 30
0.0000
  0
VERTEX
  8
0
 10
-0.4500
 20
0.2379
 30
0.0000
  0
SEQEND
  8
0
  0
POLYLINE
  8
0
 66
1
 10
0.0000
 20
0.0000
 30
0.0000
 40
0.0500
 41
0.0500
 70
0
  0
VERTEX
  8
0
 10
-0.4250
 20
0.2379
 30
0.0000
 42
1.0000
  0
VERTEX
  8
0
 10
-0.4750
 20
0.2379
 30
0.0000
  0
SEQEND
  8
0
  0
POLYLINE
  8
0
 66
1
 10
0.0000
 20
0.0000
 30
0.0000
 40
0.0500
 41
0.0500
 70
0
  0
VERTEX
  8
0
 10
-0.4750
 20
-0.2379
 30
0.0000
 42
1.0000
  0
VERTEX
  8
0
 10
-0.4250
 20
-0.2379
 30
0.0000
  0
SEQEND
  8
0
  0
ENDBLK
  8
0
  0
BLOCK
  8
0
  2
OCTAGONV
 70
64
 10
0.0000
 20
0.0000
 30
0.0000
  3
OCTAGONV
  0
POLYLINE
  8
0
 66
1
 10
0.0000
 20
0.0000
 30
0.0000
 40
0.5000
 41
0.5000
 70
0
  0
VERTEX
  8
0
 10
-0.2500
 20
-0.1036
 30
0.0000
  0
VERTEX
  8
0
 10
-0.2500
 20
0.1036
 30
0.0000
  0
VERTEX
  8
0
 10
-0.1036
 20
0.2500
 30
0.0000
  0
VERTEX
  8
0
 10
0.1036
 20
0.2500
 30
0.0000
  0
VERTEX
  8
0
 10
0.2500
 20
0.1036
 30
0.0000
  0
VERTEX
  8
0
 10
0.2500
 20
-0.1036
 30
0.0000
  0
VERTEX
  8
0
 10
0.1036
 20
-0.2500
 30
0.0000
  0
VERTEX
  8
0
 10
-0.1036
 20
-0.2500
 30
0.0000
  0
VERTEX
  8
0
 10
-0.2500
 20
-0.1036
 30
0.0000
  0
VERTEX
  8
0
 10
-0.2500
 20
0.1036
 30
0.0000
  0
SEQEND
  8
0
  0
ENDBLK
  8
0
  0
BLOCK
  8
0
  2
SQUAREV
 70
64
 10
0.0000
 20
0.0000
 30
0.0000
  3
SQUAREV
  0
SOLID
  8
0
 10
-0.5000
 20
-0.5000
 30
0.0000
 11
0.5000
 21
-0.5000
 31
0.0000
 12
-0.5000
 22
0.5000
 32
0.0000
 13
0.5000
 23
0.5000
 33
0.0000
  0
ENDBLK
  8
0
  0
BLOCK
  8
0
  2
ROUNDV
 70
64
 10
0.0000
 20
0.0000
 30
0.0000
  3
ROUNDV
  0
POLYLINE
  8
0
 66
1
 10
0.0000
 20
0.0000
 30
0.0000
 40
0.5000
 41
0.5000
 70
0
  0
VERTEX
  8
0
 10
0.0000
 20
-0.2500
 30
0.0000
 42
1.0000
  0
VERTEX
  8
0
 10
0.0000
 20
0.2500
 30
0.0000
 42
1.0000
  0
VERTEX
  8
0
 10
0.0000
 20
-0.2500
 30
0.0000
  0
SEQEND
  8
0
  0
ENDBLK
  8
0
  0
BLOCK
  8
0
  2
ANNULUSV
 70
64
 10
0.0000
 20
0.0000
 30
0.0000
  3
ANNULUSV
  0
POLYLINE
  8
0
 66
1
 10
0.0000
 20
0.0000
 30
0.0000
 40
0.5000
 41
0.5000
 70
0
  0
VERTEX
  8
0
 10
0.0000
 20
-0.2500
 30
0.0000
 42
1.0000
  0
VERTEX
  8
0
 10
0.0000
 20
0.2500
 30
0.0000
 42
1.0000
  0
VERTEX
  8
0
 10
0.0000
 20
-0.2500
 30
0.0000
  0
SEQEND
  8
0
  0
ENDBLK
  8
0
  0
BLOCK
  8
0
  2
THERMALV
 70
64
 10
0.0000
 20
0.0000
 30
0.0000
  3
THERMALV
  0
POLYLINE
  8
0
 66
1
 10
0.0000
 20
0.0000
 30
0.0000
 40
0.1000
 41
0.1000
 70
0
  0
VERTEX
  8
0
 10
-0.2379
 20
0.4500
 30
0.0000
  0
VERTEX
  8
0
 10
0.2379
 20
0.4500
 30
0.0000
  0
SEQEND
  8
0
  0
POLYLINE
  8
0
 66
1
 10
0.0000
 20
0.0000
 30
0.0000
 40
0.0500
 41
0.0500
 70
0
  0
VERTEX
  8
0
 10
0.2379
 20
0.4250
 30
0.0000
 42
1.0000
  0
VERTEX
  8
0
 10
0.2379
 20
0.4750
 30
0.0000
  0
SEQEND
  8
0
  0
POLYLINE
  8
0
 66
1
 10
0.0000
 20
0.0000
 30
0.0000
 40
0.0500
 41
0.0500
 70
0
  0
VERTEX
  8
0
 10
-0.2379
 20
0.4750
 30
0.0000
 42
1.0000
  0
VERTEX
  8
0
 10
-0.2379
 20
0.4250
 30
0.0000
  0
SEQEND
  8
0
  0
POLYLINE
  8
0
 66
1
 10
0.0000
 20
0.0000
 30
0.0000
 40
0.1000
 41
0.1000
 70
0
  0
VERTEX
  8
0
 10
0.4500
 20
0.2379
 30
0.0000
  0
VERTEX
  8
0
 10
0.4500
 20
-0.2379
 30
0.0000
  0
SEQEND
  8
0
  0
POLYLINE
  8
0
 66
1
 10
0.0000
 20
0.0000
 30
0.0000
 40
0.0500
 41
0.0500
 70
0
  0
VERTEX
  8
0
 10
0.4250
 20
-0.2379
 30
0.0000
 42
1.0000
  0
VERTEX
  8
0
 10
0.4750
 20
-0.2379
 30
0.0000
  0
SEQEND
  8
0
  0
POLYLINE
  8
0
 66
1
 10
0.0000
 20
0.0000
 30
0.0000
 40
0.0500
 41
0.0500
 70
0
  0
VERTEX
  8
0
 10
0.4750
 20
0.2379
 30
0.0000
 42
1.0000
  0
VERTEX
  8
0
 10
0.4250
 20
0.2379
 30
0.0000
  0
SEQEND
  8
0
  0
POLYLINE
  8
0
 66
1
 10
0.0000
 20
0.0000
 30
0.0000
 40
0.1000
 41
0.1000
 70
0
  0
VERTEX
  8
0
 10
0.2379
 20
-0.4500
 30
0.0000
  0
VERTEX
  8
0
 10
-0.2379
 20
-0.4500
 30
0.0000
  0
SEQEND
  8
0
  0
POLYLINE
  8
0
 66
1
 10
0.0000
 20
0.0000
 30
0.0000
 40
0.0500
 41
0.0500
 70
0
  0
VERTEX
  8
0
 10
-0.2379
 20
-0.4250
 30
0.0000
 42
1.0000
  0
VERTEX
  8
0
 10
-0.2379
 20
-0.4750
 30
0.0000
  0
SEQEND
  8
0
  0
POLYLINE
  8
0
 66
1
 10
0.0000
 20
0.0000
 30
0.0000
 40
0.0500
 41
0.0500
 70
0
  0
VERTEX
  8
0
 10
0.2379
 20
-0.4750
 30
0.0000
 42
1.0000
  0
VERTEX
  8
0
 10
0.2379
 20
-0.4250
 30
0.0000
  0
SEQEND
  8
0
  0
POLYLINE
  8
0
 66
1
 10
0.0000
 20
0.0000
 30
0.0000
 40
0.1000
 41
0.1000
 70
0
  0
VERTEX
  8
0
 10
-0.4500
 20
-0.2379
 30
0.0000
  0
VERTEX
  8
0
 10
-0.4500
 20
0.2379
 30
0.0000
  0
SEQEND
  8
0
  0
POLYLINE
  8
0
 66
1
 10
0.0000
 20
0.0000
 30
0.0000
 40
0.0500
 41
0.0500
 70
0
  0
VERTEX
  8
0
 10
-0.4250
 20
0.2379
 30
0.0000
 42
1.0000
  0
VERTEX
  8
0
 10
-0.4750
 20
0.2379
 30
0.0000
  0
SEQEND
  8
0
  0
POLYLINE
  8
0
 66
1
 10
0.0000
 20
0.0000
 30
0.0000
 40
0.0500
 41
0.0500
 70
0
  0
VERTEX
  8
0
 10
-0.4750
 20
-0.2379
 30
0.0000
 42
1.0000
  0
VERTEX
  8
0
 10
-0.4250
 20
-0.2379
 30
0.0000
  0
SEQEND
  8
0
  0
ENDBLK
  8
0
  0
BLOCK
  8
0
  2
RECT0X0R100
 70
64
 10
0.0000
 20
0.0000
 30
0.0000
  3
RECT0X0R100
  0
POLYLINE
  8
0
 66
1
 10
0.0000
 20
0.0000
 30
0.0000
 40
0.0000
 41
0.0000
 70
1
  0
VERTEX
  8
0
 10
0.0000
 20
0.0000
 30
0.0000
  0
VERTEX
  8
0
 10
0.0000
 20
0.0000
 30
0.0000
 42
0.4142
  0
VERTEX
  8
0
 10
0.0000
 20
0.0000
 30
0.0000
  0
VERTEX
  8
0
 10
0.0000
 20
0.0000
 30
0.0000
 42
0.4142
  0
VERTEX
  8
0
 10
0.0000
 20
0.0000
 30
0.0000
  0
VERTEX
  8
0
 10
0.0000
 20
0.0000
 30
0.0000
 42
0.4142
  0
VERTEX
  8
0
 10
0.0000
 20
0.0000
 30
0.0000
  0
VERTEX
  8
0
 10
0.0000
 20
0.0000
 30
0.0000
 42
0.4142
  0
SEQEND
  8
0
  0
SOLID
  8
0
 10
0.0000
 20
0.0000
 30
0.0000
 11
0.0000
 21
0.0000
 31
0.0000
 12
0.0000
 22
0.0000
 32
0.0000
 13
0.0000
 23
0.0000
 33
0.0000
  0
ENDBLK
  8
0
  0
ENDSEC
  0
SECTION
  2
ENTITIES
  0
INSERT
  8
31
  2
RECT
 10
30.0600
 20
43.1800
 30
0.0000
 41
1.1000
 42
1.0000
 43
1.0000
 50
180.0000
  0
INSERT
  8
31
  2
RECT
 10
28.3600
 20
43.1800
 30
0.0000
 41
1.1000
 42
1.0000
 43
1.0000
 50
180.0000
  0
INSERT
  8
31
  2
RECT
 10
30.0600
 20
45.7200
 30
0.0000
 41
1.1000
 42
1.0000
 43
1.0000
 50
180.0000
  0
INSERT
  8
31
  2
RECT
 10
28.3600
 20
45.7200
 30
0.0000
 41
1.1000
 42
1.0000
 43
1.0000
 50
180.0000
  0
INSERT
  8
31
  2
RECT
 10
41.9439
 20
52.0360
 30
0.0000
 41
1.1000
 42
1.0000
 43
1.0000
 50
315.0000
  0
INSERT
  8
31
  2
RECT
 10
43.1460
 20
50.8339
 30
0.0000
 41
1.1000
 42
1.0000
 43
1.0000
 50
315.0000
  0
INSERT
  8
31
  2
RECT
 10
42.5450
 20
33.4400
 30
0.0000
 41
1.1000
 42
1.0000
 43
1.0000
 50
90.0000
  0
INSERT
  8
31
  2
RECT
 10
42.5450
 20
35.1400
 30
0.0000
 41
1.1000
 42
1.0000
 43
1.0000
 50
90.0000
  0
INSERT
  8
31
  2
RECT
 10
26.0350
 20
45.4000
 30
0.0000
 41
1.3000
 42
1.5000
 43
1.0000
 50
270.0000
  0
INSERT
  8
31
  2
RECT
 10
26.0350
 20
43.5000
 30
0.0000
 41
1.3000
 42
1.5000
 43
1.0000
 50
270.0000
  0
INSERT
  8
31
  2
RECT
 10
42.2275
 20
56.0950
 30
0.0000
 41
1.1000
 42
1.0000
 43
1.0000
 50
270.0000
  0
INSERT
  8
31
  2
RECT
 10
42.2275
 20
54.3950
 30
0.0000
 41
1.1000
 42
1.0000
 43
1.0000
 50
270.0000
  0
INSERT
  8
31
  2
RECT
 10
36.5125
 20
54.3950
 30
0.0000
 41
1.1000
 42
1.0000
 43
1.0000
 50
90.0000
  0
INSERT
  8
31
  2
RECT
 10
36.5125
 20
56.0950
 30
0.0000
 41
1.1000
 42
1.0000
 43
1.0000
 50
90.0000
  0
INSERT
  8
31
  2
RECT
 10
43.1152
 20
48.0454
 30
0.0000
 41
1.2700
 42
0.5588
 43
1.0000
 50
225.0000
  0
INSERT
  8
31
  2
RECT
 10
42.5495
 20
48.6111
 30
0.0000
 41
1.2700
 42
0.5588
 43
1.0000
 50
225.0000
  0
INSERT
  8
31
  2
RECT
 10
41.9838
 20
49.1767
 30
0.0000
 41
1.2700
 42
0.5588
 43
1.0000
 50
225.0000
  0
INSERT
  8
31
  2
RECT
 10
41.4181
 20
49.7424
 30
0.0000
 41
1.2700
 42
0.5588
 43
1.0000
 50
225.0000
  0
INSERT
  8
31
  2
RECT
 10
40.8524
 20
50.3081
 30
0.0000
 41
1.2700
 42
0.5588
 43
1.0000
 50
225.0000
  0
INSERT
  8
31
  2
RECT
 10
40.2867
 20
50.8738
 30
0.0000
 41
1.2700
 42
0.5588
 43
1.0000
 50
225.0000
  0
INSERT
  8
31
  2
RECT
 10
39.7211
 20
51.4395
 30
0.0000
 41
1.2700
 42
0.5588
 43
1.0000
 50
225.0000
  0
INSERT
  8
31
  2
RECT
 10
39.1554
 20
52.0052
 30
0.0000
 41
1.2700
 42
0.5588
 43
1.0000
 50
225.0000
  0
INSERT
  8
31
  2
RECT
 10
37.0445
 20
52.0052
 30
0.0000
 41
0.5588
 42
1.2700
 43
1.0000
 50
225.0000
  0
INSERT
  8
31
  2
RECT
 10
36.4788
 20
51.4395
 30
0.0000
 41
0.5588
 42
1.2700
 43
1.0000
 50
225.0000
  0
INSERT
  8
31
  2
RECT
 10
35.9132
 20
50.8738
 30
0.0000
 41
0.5588
 42
1.2700
 43
1.0000
 50
225.0000
  0
INSERT
  8
31
  2
RECT
 10
35.3475
 20
50.3081
 30
0.0000
 41
0.5588
 42
1.2700
 43
1.0000
 50
225.0000
  0
INSERT
  8
31
  2
RECT
 10
34.7818
 20
49.7424
 30
0.0000
 41
0.5588
 42
1.2700
 43
1.0000
 50
225.0000
  0
INSERT
  8
31
  2
RECT
 10
34.2161
 20
49.1767
 30
0.0000
 41
0.5588
 42
1.2700
 43
1.0000
 50
225.0000
  0
INSERT
  8
31
  2
RECT
 10
33.6504
 20
48.6111
 30
0.0000
 41
0.5588
 42
1.2700
 43
1.0000
 50
225.0000
  0
INSERT
  8
31
  2
RECT
 10
33.0847
 20
48.0454
 30
0.0000
 41
0.5588
 42
1.2700
 43
1.0000
 50
225.0000
  0
INSERT
  8
31
  2
RECT
 10
33.0847
 20
45.9345
 30
0.0000
 41
1.2700
 42
0.5588
 43
1.0000
 50
225.0000
  0
INSERT
  8
31
  2
RECT
 10
33.6504
 20
45.3688
 30
0.0000
 41
1.2700
 42
0.5588
 43
1.0000
 50
225.0000
  0
INSERT
  8
31
  2
RECT
 10
34.2161
 20
44.8032
 30
0.0000
 41
1.2700
 42
0.5588
 43
1.0000
 50
225.0000
  0
INSERT
  8
31
  2
RECT
 10
34.7818
 20
44.2375
 30
0.0000
 41
1.2700
 42
0.5588
 43
1.0000
 50
225.0000
  0
INSERT
  8
31
  2
RECT
 10
35.3475
 20
43.6718
 30
0.0000
 41
1.2700
 42
0.5588
 43
1.0000
 50
225.0000
  0
INSERT
  8
31
  2
RECT
 10
35.9132
 20
43.1061
 30
0.0000
 41
1.2700
 42
0.5588
 43
1.0000
 50
225.0000
  0
INSERT
  8
31
  2
RECT
 10
36.4788
 20
42.5404
 30
0.0000
 41
1.2700
 42
0.5588
 43
1.0000
 50
225.0000
  0
INSERT
  8
31
  2
RECT
 10
37.0445
 20
41.9747
 30
0.0000
 41
1.2700
 42
0.5588
 43
1.0000
 50
225.0000
  0
INSERT
  8
31
  2
RECT
 10
39.1554
 20
41.9747
 30
0.0000
 41
0.5588
 42
1.2700
 43
1.0000
 50
225.0000
  0
INSERT
  8
31
  2
RECT
 10
39.7211
 20
42.5404
 30
0.0000
 41
0.5588
 42
1.2700
 43
1.0000
 50
225.0000
  0
INSERT
  8
31
  2
RECT
 10
40.2867
 20
43.1061
 30
0.0000
 41
0.5588
 42
1.2700
 43
1.0000
 50
225.0000
  0
INSERT
  8
31
  2
RECT
 10
40.8524
 20
43.6718
 30
0.0000
 41
0.5588
 42
1.2700
 43
1.0000
 50
225.0000
  0
INSERT
  8
31
  2
RECT
 10
41.4181
 20
44.2375
 30
0.0000
 41
0.5588
 42
1.2700
 43
1.0000
 50
225.0000
  0
INSERT
  8
31
  2
RECT
 10
41.9838
 20
44.8032
 30
0.0000
 41
0.5588
 42
1.2700
 43
1.0000
 50
225.0000
  0
INSERT
  8
31
  2
RECT
 10
42.5495
 20
45.3688
 30
0.0000
 41
0.5588
 42
1.2700
 43
1.0000
 50
225.0000
  0
INSERT
  8
31
  2
RECT
 10
43.1152
 20
45.9345
 30
0.0000
 41
0.5588
 42
1.2700
 43
1.0000
 50
225.0000
  0
INSERT
  8
31
  2
RECT
 10
1.3455
 20
78.7400
 30
0.0000
 41
0.8000
 42
0.8000
 43
1.0000
 50
270.0000
  0
INSERT
  8
31
  2
RECT
 10
2.8455
 20
78.7400
 30
0.0000
 41
0.8000
 42
0.8000
 43
1.0000
 50
270.0000
  0
INSERT
  8
31
  2
RECT
 10
1.0280
 20
76.2000
 30
0.0000
 41
0.8000
 42
0.8000
 43
1.0000
 50
270.0000
  0
INSERT
  8
31
  2
RECT
 10
2.5280
 20
76.2000
 30
0.0000
 41
0.8000
 42
0.8000
 43
1.0000
 50
270.0000
  0
INSERT
  8
31
  2
RECT
 10
5.9810
 20
78.7400
 30
0.0000
 41
0.8000
 42
0.8000
 43
1.0000
 50
270.0000
  0
INSERT
  8
31
  2
RECT
 10
7.4810
 20
78.7400
 30
0.0000
 41
0.8000
 42
0.8000
 43
1.0000
 50
270.0000
  0
INSERT
  8
31
  2
RECT
 10
5.9810
 20
76.2000
 30
0.0000
 41
0.8000
 42
0.8000
 43
1.0000
 50
270.0000
  0
INSERT
  8
31
  2
RECT
 10
7.4810
 20
76.2000
 30
0.0000
 41
0.8000
 42
0.8000
 43
1.0000
 50
270.0000
  0
INSERT
  8
31
  2
RECT
 10
10.9340
 20
78.7400
 30
0.0000
 41
0.8000
 42
0.8000
 43
1.0000
 50
270.0000
  0
INSERT
  8
31
  2
RECT
 10
12.4340
 20
78.7400
 30
0.0000
 41
0.8000
 42
0.8000
 43
1.0000
 50
270.0000
  0
INSERT
  8
31
  2
RECT
 10
10.9340
 20
76.2000
 30
0.0000
 41
0.8000
 42
0.8000
 43
1.0000
 50
270.0000
  0
INSERT
  8
31
  2
RECT
 10
12.4340
 20
76.2000
 30
0.0000
 41
0.8000
 42
0.8000
 43
1.0000
 50
270.0000
  0
INSERT
  8
31
  2
RECT
 10
15.8870
 20
78.7400
 30
0.0000
 41
0.8000
 42
0.8000
 43
1.0000
 50
270.0000
  0
INSERT
  8
31
  2
RECT
 10
17.3870
 20
78.7400
 30
0.0000
 41
0.8000
 42
0.8000
 43
1.0000
 50
270.0000
  0
INSERT
  8
31
  2
RECT
 10
15.8870
 20
76.2000
 30
0.0000
 41
0.8000
 42
0.8000
 43
1.0000
 50
270.0000
  0
INSERT
  8
31
  2
RECT
 10
17.3870
 20
76.2000
 30
0.0000
 41
0.8000
 42
0.8000
 43
1.0000
 50
270.0000
  0
INSERT
  8
31
  2
RECT
 10
20.8400
 20
78.7400
 30
0.0000
 41
0.8000
 42
0.8000
 43
1.0000
 50
270.0000
  0
INSERT
  8
31
  2
RECT
 10
22.3400
 20
78.7400
 30
0.0000
 41
0.8000
 42
0.8000
 43
1.0000
 50
270.0000
  0
INSERT
  8
31
  2
RECT
 10
20.8400
 20
76.2000
 30
0.0000
 41
0.8000
 42
0.8000
 43
1.0000
 50
270.0000
  0
INSERT
  8
31
  2
RECT
 10
22.3400
 20
76.2000
 30
0.0000
 41
0.8000
 42
0.8000
 43
1.0000
 50
270.0000
  0
INSERT
  8
31
  2
RECT
 10
25.7930
 20
78.7400
 30
0.0000
 41
0.8000
 42
0.8000
 43
1.0000
 50
270.0000
  0
INSERT
  8
31
  2
RECT
 10
27.2930
 20
78.7400
 30
0.0000
 41
0.8000
 42
0.8000
 43
1.0000
 50
270.0000
  0
INSERT
  8
31
  2
RECT
 10
25.7930
 20
76.2000
 30
0.0000
 41
0.8000
 42
0.8000
 43
1.0000
 50
270.0000
  0
INSERT
  8
31
  2
RECT
 10
27.2930
 20
76.2000
 30
0.0000
 41
0.8000
 42
0.8000
 43
1.0000
 50
270.0000
  0
INSERT
  8
31
  2
RECT
 10
30.7460
 20
78.7400
 30
0.0000
 41
0.8000
 42
0.8000
 43
1.0000
 50
270.0000
  0
INSERT
  8
31
  2
RECT
 10
32.2460
 20
78.7400
 30
0.0000
 41
0.8000
 42
0.8000
 43
1.0000
 50
270.0000
  0
INSERT
  8
31
  2
RECT
 10
30.7460
 20
76.2000
 30
0.0000
 41
0.8000
 42
0.8000
 43
1.0000
 50
270.0000
  0
INSERT
  8
31
  2
RECT
 10
32.2460
 20
76.2000
 30
0.0000
 41
0.8000
 42
0.8000
 43
1.0000
 50
270.0000
  0
INSERT
  8
31
  2
RECT
 10
35.6990
 20
78.7400
 30
0.0000
 41
0.8000
 42
0.8000
 43
1.0000
 50
270.0000
  0
INSERT
  8
31
  2
RECT
 10
37.1990
 20
78.7400
 30
0.0000
 41
0.8000
 42
0.8000
 43
1.0000
 50
270.0000
  0
INSERT
  8
31
  2
RECT
 10
35.6990
 20
76.2000
 30
0.0000
 41
0.8000
 42
0.8000
 43
1.0000
 50
270.0000
  0
INSERT
  8
31
  2
RECT
 10
37.1990
 20
76.2000
 30
0.0000
 41
0.8000
 42
0.8000
 43
1.0000
 50
270.0000
  0
INSERT
  8
31
  2
RECT
 10
40.6520
 20
78.7400
 30
0.0000
 41
0.8000
 42
0.8000
 43
1.0000
 50
270.0000
  0
INSERT
  8
31
  2
RECT
 10
42.1520
 20
78.7400
 30
0.0000
 41
0.8000
 42
0.8000
 43
1.0000
 50
270.0000
  0
INSERT
  8
31
  2
RECT
 10
40.6520
 20
76.2000
 30
0.0000
 41
0.8000
 42
0.8000
 43
1.0000
 50
270.0000
  0
INSERT
  8
31
  2
RECT
 10
42.1520
 20
76.2000
 30
0.0000
 41
0.8000
 42
0.8000
 43
1.0000
 50
270.0000
  0
INSERT
  8
31
  2
RECT
 10
45.6050
 20
78.7400
 30
0.0000
 41
0.8000
 42
0.8000
 43
1.0000
 50
270.0000
  0
INSERT
  8
31
  2
RECT
 10
47.1050
 20
78.7400
 30
0.0000
 41
0.8000
 42
0.8000
 43
1.0000
 50
270.0000
  0
INSERT
  8
31
  2
RECT
 10
45.6050
 20
76.2000
 30
0.0000
 41
0.8000
 42
0.8000
 43
1.0000
 50
270.0000
  0
INSERT
  8
31
  2
RECT
 10
47.1050
 20
76.2000
 30
0.0000
 41
0.8000
 42
0.8000
 43
1.0000
 50
270.0000
  0
INSERT
  8
31
  2
RECT
 10
40.1700
 20
56.3450
 30
0.0000
 41
1.2000
 42
1.4000
 43
1.0000
 50
0.0000
  0
INSERT
  8
31
  2
RECT
 10
40.1700
 20
54.1450
 30
0.0000
 41
1.2000
 42
1.4000
 43
1.0000
 50
0.0000
  0
INSERT
  8
31
  2
RECT
 10
38.5700
 20
54.1450
 30
0.0000
 41
1.2000
 42
1.4000
 43
1.0000
 50
0.0000
  0
INSERT
  8
31
  2
RECT
 10
38.5700
 20
56.3450
 30
0.0000
 41
1.2000
 42
1.4000
 43
1.0000
 50
0.0000
  0
INSERT
  8
31
  2
RECT
 10
45.1875
 20
41.9100
 30
0.0000
 41
1.0000
 42
1.1000
 43
1.0000
 50
0.0000
  0
INSERT
  8
31
  2
RECT
 10
46.8875
 20
41.9100
 30
0.0000
 41
1.0000
 42
1.1000
 43
1.0000
 50
0.0000
  0
INSERT
  8
31
  2
RECT
 10
42.7600
 20
73.6600
 30
0.0000
 41
1.0000
 42
1.1000
 43
1.0000
 50
180.0000
  0
INSERT
  8
31
  2
RECT
 10
41.0600
 20
73.6600
 30
0.0000
 41
1.0000
 42
1.1000
 43
1.0000
 50
180.0000
  0
INSERT
  8
31
  2
RECT
 10
32.6000
 20
73.6600
 30
0.0000
 41
1.0000
 42
1.1000
 43
1.0000
 50
180.0000
  0
INSERT
  8
31
  2
RECT
 10
30.9000
 20
73.6600
 30
0.0000
 41
1.0000
 42
1.1000
 43
1.0000
 50
180.0000
  0
INSERT
  8
31
  2
RECT
 10
23.7100
 20
73.6600
 30
0.0000
 41
1.0000
 42
1.1000
 43
1.0000
 50
180.0000
  0
INSERT
  8
31
  2
RECT
 10
22.0100
 20
73.6600
 30
0.0000
 41
1.0000
 42
1.1000
 43
1.0000
 50
180.0000
  0
INSERT
  8
31
  2
RECT
 10
13.5500
 20
73.6600
 30
0.0000
 41
1.0000
 42
1.1000
 43
1.0000
 50
180.0000
  0
INSERT
  8
31
  2
RECT
 10
11.8500
 20
73.6600
 30
0.0000
 41
1.0000
 42
1.1000
 43
1.0000
 50
180.0000
  0
INSERT
  8
31
  2
RECT
 10
3.3900
 20
73.6600
 30
0.0000
 41
1.0000
 42
1.1000
 43
1.0000
 50
180.0000
  0
INSERT
  8
31
  2
RECT
 10
1.6900
 20
73.6600
 30
0.0000
 41
1.0000
 42
1.1000
 43
1.0000
 50
180.0000
  0
INSERT
  8
31
  2
RECT
 10
9.7400
 20
51.7525
 30
0.0000
 41
1.0000
 42
1.1000
 43
1.0000
 50
180.0000
  0
INSERT
  8
31
  2
RECT
 10
8.0400
 20
51.7525
 30
0.0000
 41
1.0000
 42
1.1000
 43
1.0000
 50
180.0000
  0
INSERT
  8
31
  2
RECT
 10
9.7400
 20
49.5300
 30
0.0000
 41
1.0000
 42
1.1000
 43
1.0000
 50
180.0000
  0
INSERT
  8
31
  2
RECT
 10
8.0400
 20
49.5300
 30
0.0000
 41
1.0000
 42
1.1000
 43
1.0000
 50
180.0000
  0
INSERT
  8
31
  2
RECT
 10
9.7400
 20
53.9750
 30
0.0000
 41
1.0000
 42
1.1000
 43
1.0000
 50
180.0000
  0
INSERT
  8
31
  2
RECT
 10
8.0400
 20
53.9750
 30
0.0000
 41
1.0000
 42
1.1000
 43
1.0000
 50
180.0000
  0
INSERT
  8
31
  2
RECT
 10
5.2950
 20
19.6850
 30
0.0000
 41
1.0000
 42
1.1000
 43
1.0000
 50
180.0000
  0
INSERT
  8
31
  2
RECT
 10
3.5950
 20
19.6850
 30
0.0000
 41
1.0000
 42
1.1000
 43
1.0000
 50
180.0000
  0
INSERT
  8
31
  2
RECT
 10
16.7250
 20
19.6850
 30
0.0000
 41
1.0000
 42
1.1000
 43
1.0000
 50
180.0000
  0
INSERT
  8
31
  2
RECT
 10
15.0250
 20
19.6850
 30
0.0000
 41
1.0000
 42
1.1000
 43
1.0000
 50
180.0000
  0
INSERT
  8
31
  2
RECT
 10
29.4250
 20
19.6850
 30
0.0000
 41
1.0000
 42
1.1000
 43
1.0000
 50
180.0000
  0
INSERT
  8
31
  2
RECT
 10
27.7250
 20
19.6850
 30
0.0000
 41
1.0000
 42
1.1000
 43
1.0000
 50
180.0000
  0
INSERT
  8
31
  2
RECT
 10
40.8550
 20
19.6850
 30
0.0000
 41
1.0000
 42
1.1000
 43
1.0000
 50
180.0000
  0
INSERT
  8
31
  2
RECT
 10
39.1550
 20
19.6850
 30
0.0000
 41
1.0000
 42
1.1000
 43
1.0000
 50
180.0000
  0
INSERT
  8
31
  2
RECT
 10
5.1750
 20
35.2700
 30
0.0000
 41
2.0000
 42
0.8000
 43
1.0000
 50
180.0000
  0
INSERT
  8
31
  2
RECT
 10
5.1750
 20
32.2700
 30
0.0000
 41
2.0000
 42
0.8000
 43
1.0000
 50
180.0000
  0
INSERT
  8
31
  2
RECT
 10
5.1750
 20
30.7700
 30
0.0000
 41
2.0000
 42
0.8000
 43
1.0000
 50
180.0000
  0
INSERT
  8
31
  2
RECT
 10
4.3250
 20
29.2700
 30
0.0000
 41
1.2000
 42
0.8000
 43
1.0000
 50
270.0000
  0
INSERT
  8
31
  2
RECT
 10
2.0250
 20
29.3700
 30
0.0000
 41
1.4000
 42
0.8000
 43
1.0000
 50
270.0000
  0
INSERT
  8
31
  2
RECT
 10
2.0250
 20
36.6700
 30
0.0000
 41
1.4000
 42
0.8000
 43
1.0000
 50
270.0000
  0
INSERT
  8
31
  2
RECT
 10
4.3250
 20
36.7700
 30
0.0000
 41
1.2000
 42
0.8000
 43
1.0000
 50
270.0000
  0
INSERT
  8
31
  2
RECT
 10
2.4500
 20
16.5100
 30
0.0000
 41
1.5000
 42
1.5000
 43
1.0000
 50
0.0000
  0
INSERT
  8
31
  2
RECT
 10
10.2500
 20
16.5100
 30
0.0000
 41
1.5000
 42
1.5000
 43
1.0000
 50
0.0000
  0
INSERT
  8
31
  2
RECT
 10
13.8800
 20
16.5100
 30
0.0000
 41
1.5000
 42
1.5000
 43
1.0000
 50
0.0000
  0
INSERT
  8
31
  2
RECT
 10
21.6800
 20
16.5100
 30
0.0000
 41
1.5000
 42
1.5000
 43
1.0000
 50
0.0000
  0
INSERT
  8
31
  2
RECT
 10
26.5800
 20
16.5100
 30
0.0000
 41
1.5000
 42
1.5000
 43
1.0000
 50
0.0000
  0
INSERT
  8
31
  2
RECT
 10
34.3800
 20
16.5100
 30
0.0000
 41
1.5000
 42
1.5000
 43
1.0000
 50
0.0000
  0
INSERT
  8
31
  2
RECT
 10
38.0100
 20
16.5100
 30
0.0000
 41
1.5000
 42
1.5000
 43
1.0000
 50
0.0000
  0
INSERT
  8
31
  2
RECT
 10
45.8100
 20
16.5100
 30
0.0000
 41
1.5000
 42
1.5000
 43
1.0000
 50
0.0000
  0
INSERT
  8
31
  2
RECT
 10
47.1170
 20
73.6600
 30
0.0000
 41
1.1684
 42
1.6002
 43
1.0000
 50
180.0000
  0
INSERT
  8
31
  2
RECT
 10
45.5930
 20
73.6600
 30
0.0000
 41
1.1684
 42
1.6002
 43
1.0000
 50
180.0000
  0
INSERT
  8
31
  2
RECT
 10
37.5920
 20
73.6600
 30
0.0000
 41
1.1684
 42
1.6002
 43
1.0000
 50
180.0000
  0
INSERT
  8
31
  2
RECT
 10
36.0680
 20
73.6600
 30
0.0000
 41
1.1684
 42
1.6002
 43
1.0000
 50
180.0000
  0
INSERT
  8
31
  2
RECT
 10
27.4320
 20
73.6600
 30
0.0000
 41
1.1684
 42
1.6002
 43
1.0000
 50
180.0000
  0
INSERT
  8
31
  2
RECT
 10
25.9080
 20
73.6600
 30
0.0000
 41
1.1684
 42
1.6002
 43
1.0000
 50
180.0000
  0
INSERT
  8
31
  2
RECT
 10
18.5420
 20
73.6600
 30
0.0000
 41
1.1684
 42
1.6002
 43
1.0000
 50
180.0000
  0
INSERT
  8
31
  2
RECT
 10
17.0180
 20
73.6600
 30
0.0000
 41
1.1684
 42
1.6002
 43
1.0000
 50
180.0000
  0
INSERT
  8
31
  2
RECT
 10
8.3820
 20
73.6600
 30
0.0000
 41
1.1684
 42
1.6002
 43
1.0000
 50
180.0000
  0
INSERT
  8
31
  2
RECT
 10
6.8580
 20
73.6600
 30
0.0000
 41
1.1684
 42
1.6002
 43
1.0000
 50
180.0000
  0
INSERT
  8
31
  2
RECT
 10
7.4930
 20
19.6850
 30
0.0000
 41
1.1684
 42
1.6002
 43
1.0000
 50
0.0000
  0
INSERT
  8
31
  2
RECT
 10
9.0170
 20
19.6850
 30
0.0000
 41
1.1684
 42
1.6002
 43
1.0000
 50
0.0000
  0
INSERT
  8
31
  2
RECT
 10
18.9230
 20
19.6850
 30
0.0000
 41
1.1684
 42
1.6002
 43
1.0000
 50
0.0000
  0
INSERT
  8
31
  2
RECT
 10
20.4470
 20
19.6850
 30
0.0000
 41
1.1684
 42
1.6002
 43
1.0000
 50
0.0000
  0
INSERT
  8
31
  2
RECT
 10
31.6230
 20
19.6850
 30
0.0000
 41
1.1684
 42
1.6002
 43
1.0000
 50
0.0000
  0
INSERT
  8
31
  2
RECT
 10
33.1470
 20
19.6850
 30
0.0000
 41
1.1684
 42
1.6002
 43
1.0000
 50
0.0000
  0
INSERT
  8
31
  2
RECT
 10
43.0530
 20
19.6850
 30
0.0000
 41
1.1684
 42
1.6002
 43
1.0000
 50
0.0000
  0
INSERT
  8
31
  2
RECT
 10
44.5770
 20
19.6850
 30
0.0000
 41
1.1684
 42
1.6002
 43
1.0000
 50
0.0000
  0
INSERT
  8
31
  2
RECT
 10
5.1475
 20
50.8000
 30
0.0000
 41
2.2500
 42
0.4000
 43
1.0000
 50
0.0000
  0
INSERT
  8
31
  2
RECT
 10
5.1475
 20
51.4500
 30
0.0000
 41
2.2500
 42
0.4000
 43
1.0000
 50
0.0000
  0
INSERT
  8
31
  2
RECT
 10
5.1475
 20
49.5000
 30
0.0000
 41
2.2500
 42
0.4000
 43
1.0000
 50
0.0000
  0
INSERT
  8
31
  2
RECT
 10
2.2225
 20
50.8000
 30
0.0000
 41
1.9000
 42
1.9000
 43
1.0000
 50
270.0000
  0
INSERT
  8
31
  2
RECT
 10
5.1475
 20
50.1500
 30
0.0000
 41
2.2500
 42
0.4000
 43
1.0000
 50
0.0000
  0
INSERT
  8
31
  2
RECT
 10
5.1475
 20
52.1000
 30
0.0000
 41
2.2500
 42
0.4000
 43
1.0000
 50
0.0000
  0
ENDSEC
  0
EOF
